/* XPM */
static char * icon_xpm[] = {
"16 16 90 1",
" 	c None",
".	c #9700E9",
"+	c #9F9F9F",
"@	c #A5A5A5",
"#	c #9753E7",
"$	c #9752E6",
"%	c #9B4FE8",
"&	c #9C9C9C",
"*	c #C8C8C8",
"=	c #F0F0F0",
"-	c #F9F9F9",
";	c #FAFAFA",
">	c #B1B1B1",
",	c #9653E6",
"'	c #9752E7",
")	c #9B4EE8",
"!	c #A04BE9",
"~	c #A448EA",
"{	c #A845EB",
"]	c #AC41EC",
"^	c #C7C7C7",
"/	c #F7F7F7",
"(	c #F6F6F6",
"_	c #EAEAEA",
":	c #999999",
"<	c #9C4FE8",
"[	c #A548EA",
"}	c #A944EB",
"|	c #AD41EC",
"1	c #B23DED",
"2	c #B63AEE",
"3	c #F4F4F4",
"4	c #969696",
"5	c #AE40EC",
"6	c #B639EE",
"7	c #BA37EF",
"8	c #BE33F0",
"9	c #EEEEEE",
"0	c #929292",
"a	c #AE41EC",
"b	c #B739EE",
"c	c #BA36EF",
"d	c #BF33F0",
"e	c #C42FF1",
"f	c #C72CF3",
"g	c #E7E7E7",
"h	c #DADADA",
"i	c #8D8D8D",
"j	c #BB35EF",
"k	c #C033F0",
"l	c #C82BF2",
"m	c #CC28F3",
"n	c #D025F4",
"o	c #E2E2E2",
"p	c #AFAFAF",
"q	c #C52EF1",
"r	c #C92BF2",
"s	c #CD27F3",
"t	c #D124F4",
"u	c #D521F5",
"v	c #DA1DF6",
"w	c #DCDCDC",
"x	c #C5C5C5",
"y	c #858585",
"z	c #D124F5",
"A	c #D620F6",
"B	c #DB1DF6",
"C	c #DF19F8",
"D	c #E316F8",
"E	c #D6D6D6",
"F	c #C3C3C3",
"G	c #818181",
"H	c #DF19F7",
"I	c #E316F9",
"J	c #E812FA",
"K	c #EC0FFA",
"L	c #D1D1D1",
"M	c #BDBDBD",
"N	c #7D7D7D",
"O	c #EC0EFA",
"P	c #F10BFB",
"Q	c #F508FD",
"R	c #CFCFCF",
"S	c #797979",
"T	c #F904FE",
"U	c #FE01FF",
"V	c #777777",
"W	c #FF00FF",
"X	c #BBBBBB",
"Y	c #727272",
"                ",
"  ....    ++@+  ",
" .##$%..&*=-;=> ",
".,')!~{]^-/((-_:",
".<![}|12=3====(4",
".[}51678999999=0",
".a1bcdef_gggg_hi",
".bjkelmnooooo9p ",
" .qrstuvhwhw_xy ",
"  .zABCDEEEgFG  ",
"   .HIJKLLoMN   ",
"    .OPQRoMS    ",
"     .TUwMV     ",
"      .WXV      ",
"       .Y       ",
"                "};
