/* XPM */
static char * icon_xpm[] = {
"16 16 96 2",
"  	c None",
". 	c #005500",
"+ 	c #9F9F9F",
"@ 	c #A5A5A5",
"# 	c #038703",
"$ 	c #048703",
"% 	c #0A8803",
"& 	c #108905",
"* 	c #9C9C9C",
"= 	c #C8C8C8",
"- 	c #F0F0F0",
"; 	c #F9F9F9",
"> 	c #FAFAFA",
", 	c #B1B1B1",
"' 	c #068804",
") 	c #0C8904",
"! 	c #138904",
"~ 	c #188B06",
"{ 	c #1F8B07",
"] 	c #258B07",
"^ 	c #2A8D08",
"/ 	c #C7C7C7",
"( 	c #F7F7F7",
"_ 	c #F6F6F6",
": 	c #EAEAEA",
"< 	c #999999",
"[ 	c #158905",
"} 	c #1B8A06",
"| 	c #218B07",
"1 	c #278C08",
"2 	c #2D8D08",
"3 	c #338E09",
"4 	c #398F0A",
"5 	c #F4F4F4",
"6 	c #969696",
"7 	c #258C07",
"8 	c #308E09",
"9 	c #368F0A",
"0 	c #3C8F0B",
"a 	c #428F0B",
"b 	c #48910C",
"c 	c #EEEEEE",
"d 	c #929292",
"e 	c #338D09",
"f 	c #398E0A",
"g 	c #3F900B",
"h 	c #45900C",
"i 	c #4B910C",
"j 	c #51920D",
"k 	c #57930E",
"l 	c #E7E7E7",
"m 	c #DADADA",
"n 	c #8D8D8D",
"o 	c #42900B",
"p 	c #48900C",
"q 	c #4E910D",
"r 	c #54920E",
"s 	c #5A930E",
"t 	c #609410",
"u 	c #669510",
"v 	c #E2E2E2",
"w 	c #AFAFAF",
"x 	c #5D940F",
"y 	c #639510",
"z 	c #699511",
"A 	c #6F9612",
"B 	c #759712",
"C 	c #DCDCDC",
"D 	c #C5C5C5",
"E 	c #858585",
"F 	c #6C9611",
"G 	c #719712",
"H 	c #779712",
"I 	c #7D9813",
"J 	c #839914",
"K 	c #D6D6D6",
"L 	c #C3C3C3",
"M 	c #818181",
"N 	c #809914",
"O 	c #879A14",
"P 	c #8D9A15",
"Q 	c #929B17",
"R 	c #D1D1D1",
"S 	c #BDBDBD",
"T 	c #7D7D7D",
"U 	c #969B16",
"V 	c #9B9D17",
"W 	c #A19E18",
"X 	c #CFCFCF",
"Y 	c #797979",
"Z 	c #AB9F19",
"` 	c #B09F1A",
" .	c #777777",
"..	c #BEA11C",
"+.	c #BBBBBB",
"@.	c #727272",
"                                ",
"    . . . .         + + @ +     ",
"  . # $ % & . . * = - ; > - ,   ",
". ' ) ! ~ { ] ^ / ; ( _ _ ; : < ",
". [ } | 1 2 3 4 - 5 - - - - _ 6 ",
". 7 ^ 8 9 0 a b c c c c c c - d ",
". e f g h i j k : l l l l : m n ",
". o p q r s t u v v v v v c w   ",
"  . k x y z A B m C m C : D E   ",
"    . F G H I J K K K l L M     ",
"      . N O P Q R R v S T       ",
"        . U V W X v S Y         ",
"          . Z ` C S  .          ",
"            . ..+. .            ",
"              . @.              ",
"                                "};
