/* XPM */
static char *Free_Converter_com_1453763767_heart_half_56152022[] = {
/* columns rows colors chars-per-pixel */
"16 16 102 2 ",
"   c #727272",
".  c gray46",
"X  c #777777",
"o  c #797979",
"O  c gray49",
"+  c #901212",
"@  c #931412",
"#  c #971511",
"$  c #9A1512",
"%  c #9E1813",
"&  c #A5140E",
"*  c #A9170F",
"=  c #B2160D",
"-  c #B5160C",
";  c #B7170C",
":  c #B0180F",
">  c #A31912",
",  c #A51B14",
"<  c #B32511",
"1  c #B72A13",
"2  c #BC2F16",
"3  c #B22218",
"4  c #BE2A1D",
"5  c #C33214",
"6  c #C1351A",
"7  c #C73718",
"8  c #CB3E1C",
"9  c #C84020",
"0  c #C84429",
"q  c #CF4A28",
"w  c #D24B27",
"e  c #D95A33",
"r  c #D55E4B",
"t  c #D86754",
"y  c #E16841",
"u  c #E16942",
"i  c #E26B44",
"p  c #E8774F",
"a  c #ED835B",
"s  c #EE845C",
"d  c #EF8963",
"f  c #F28E68",
"g  c #F28F69",
"h  c #E98E76",
"j  c #EE967E",
"k  c #F69773",
"l  c #F69874",
"z  c #F49876",
"x  c #F79D7B",
"c  c #F79F7E",
"v  c #818181",
"b  c gray52",
"n  c #8D8D8D",
"m  c #929292",
"M  c gray59",
"N  c gray60",
"B  c gray61",
"V  c #9F9F9F",
"C  c #A5A5A5",
"Z  c #AFAFAF",
"A  c #B1B1B1",
"S  c #BBBBBB",
"D  c gray74",
"F  c gray",
"G  c #F29F82",
"H  c #F3A086",
"J  c #F8A98C",
"K  c #FAAD92",
"L  c #FAAE93",
"P  c #C0C0C0",
"I  c #C3C3C3",
"U  c #C5C5C5",
"Y  c gray78",
"T  c #C8C8C8",
"R  c gray81",
"E  c gray82",
"W  c gray84",
"Q  c #DADADA",
"!  c gainsboro",
"~  c gray87",
"^  c gray88",
"/  c #E1E1E1",
"(  c #E2E2E2",
")  c #E4E4E4",
"_  c #E7E7E7",
"`  c gray91",
"'  c #EAEAEA",
"]  c #ECECEC",
"[  c gray93",
"{  c #EEEEEE",
"}  c gray94",
"|  c #F1F1F1",
" . c gray95",
".. c #F3F3F3",
"X. c #F4F4F4",
"o. c gray96",
"O. c #F6F6F6",
"+. c gray97",
"@. c #F8F8F8",
"#. c #F9F9F9",
"$. c gray98",
"%. c None",
/* pixels */
"%.%.%.%.%.%.%.%.%.%.%.%.%.%.%.%.",
"%.%.; ; ; - %.%.%.%.V V C V %.%.",
"%.4 j L L H r - B T } #.$.} A %.",
"= h c k k x J t Y #.+.O.O.#.' N ",
": z g g f f g H } X.} } } } O.M ",
"3 a s s s a s d { { { { { { } m ",
"* i p p p p p p ' _ _ _ _ ' Q n ",
"& 0 y y y y y i ( ( ( ( ( { Z %.",
"%., q e e e e e Q ! Q ! ' U b %.",
"%.%.> 9 w w w w W W W _ I v %.%.",
"%.%.%.% 6 8 8 8 E E ( D O %.%.%.",
"%.%.%.%.$ 2 7 7 R ( D o %.%.%.%.",
"%.%.%.%.%.# 1 5 ! D X %.%.%.%.%.",
"%.%.%.%.%.%.@ < S X %.%.%.%.%.%.",
"%.%.%.%.%.%.%.+   %.%.%.%.%.%.%.",
"%.%.%.%.%.%.%.%.%.%.%.%.%.%.%.%."
};
