/* XPM */
static char * icon_xpm[] = {
"16 16 78 1",
" 	c None",
".	c #B38515",
"+	c #9F9F9F",
"@	c #A5A5A5",
"#	c #FFBF00",
"$	c #FFC000",
"%	c #FFC300",
"&	c #9C9C9C",
"*	c #C8C8C8",
"=	c #F0F0F0",
"-	c #F9F9F9",
";	c #FAFAFA",
">	c #B1B1B1",
",	c #FFC100",
"'	c #FFC400",
")	c #FFC600",
"!	c #FFC900",
"~	c #F9CA00",
"{	c #F9CB00",
"]	c #C7C7C7",
"^	c #F7F7F7",
"/	c #F6F6F6",
"(	c #EAEAEA",
"_	c #999999",
":	c #FFCE00",
"<	c #FFD000",
"[	c #FFD300",
"}	c #F4F4F4",
"|	c #969696",
"1	c #FCCC00",
"2	c #FFD500",
"3	c #FFD700",
"4	c #EEEEEE",
"5	c #929292",
"6	c #FFCF00",
"7	c #FFD600",
"8	c #FFD800",
"9	c #FFDA00",
"0	c #FFDD00",
"a	c #E7E7E7",
"b	c #DADADA",
"c	c #8D8D8D",
"d	c #FFD900",
"e	c #FFDB00",
"f	c #FFDE00",
"g	c #FFE000",
"h	c #FFE200",
"i	c #E2E2E2",
"j	c #AFAFAF",
"k	c #FFE300",
"l	c #FFE500",
"m	c #FFE700",
"n	c #DCDCDC",
"o	c #C5C5C5",
"p	c #858585",
"q	c #FFE800",
"r	c #FFEA00",
"s	c #FFEC00",
"t	c #D6D6D6",
"u	c #C3C3C3",
"v	c #818181",
"w	c #FFED00",
"x	c #FFF000",
"y	c #FFF100",
"z	c #D1D1D1",
"A	c #BDBDBD",
"B	c #7D7D7D",
"C	c #FFF300",
"D	c #FFF400",
"E	c #FFF700",
"F	c #CFCFCF",
"G	c #797979",
"H	c #FFFA00",
"I	c #FFFC00",
"J	c #777777",
"K	c #FFFF00",
"L	c #BBBBBB",
"M	c #727272",
"                ",
"  ....    ++@+  ",
" ..#$%..&*=-;=> ",
".#,')!~{]-^//-(_",
".')!{:<[=}====/|",
".~1:<[23444444=5",
".6<[7890(aaaa(bc",
".[7defghiiiii4j ",
" .efgklmbnbn(op ",
"  .klqrstttauv  ",
"   .rwxyzziAB   ",
"    .CDEFiAG    ",
"     .HInAJ     ",
"      .KLJ      ",
"       .M       ",
"                "};
