<?xml version="1.0" encoding="UTF-8" standalone="no"?>
<svg
   xmlns:dc="http://purl.org/dc/elements/1.1/"
   xmlns:cc="http://creativecommons.org/ns#"
   xmlns:rdf="http://www.w3.org/1999/02/22-rdf-syntax-ns#"
   xmlns:svg="http://www.w3.org/2000/svg"
   xmlns="http://www.w3.org/2000/svg"
   viewBox="0 0 445.97519 286.7038"
   height="286.7038"
   width="445.97519"
   xml:space="preserve"
   version="1.1"
   id="svg2"><metadata
     id="metadata8"><rdf:RDF><cc:Work
         rdf:about=""><dc:format>image/svg+xml</dc:format><dc:type
           rdf:resource="http://purl.org/dc/dcmitype/StillImage" /><dc:title></dc:title></cc:Work></rdf:RDF></metadata><defs
     id="defs6"><clipPath
       id="clipPath24"
       clipPathUnits="userSpaceOnUse"><path
         id="path26"
         d="m 319.477,168.531 c -0.024,3.074 -0.797,6.102 -2.25,8.813 -1.563,2.91 -3.684,5.484 -6.243,7.574 -5.679,4.574 -12.601,7.34 -19.875,7.933 -3.812,0.344 -7.652,0.118 -11.398,-0.668 -3.809,-0.797 -7.441,-2.273 -10.727,-4.363 -3.312,-2.101 -6.109,-4.922 -8.187,-8.25 -4.262,-6.769 -4.262,-15.383 0,-22.156 2.078,-3.317 4.883,-6.121 8.195,-8.203 3.285,-2.09 6.918,-3.567 10.727,-4.36 3.742,-0.777 7.582,-1 11.39,-0.66 7.266,0.602 14.184,3.363 19.864,7.93 2.554,2.086 4.672,4.656 6.238,7.558 1.469,2.719 2.246,5.758 2.266,8.852 z" /></clipPath><linearGradient
       id="linearGradient30"
       spreadMethod="pad"
       gradientTransform="matrix(0.75,0,0,-0.75,-72.564112,263.44249)"
       gradientUnits="userSpaceOnUse"
       y2="126.54"
       x2="522.71997"
       y1="126.54"
       x1="440.25"><stop
         id="stop32"
         offset="0"
         style="stop-opacity:1;stop-color:#e65627" /><stop
         id="stop34"
         offset="1"
         style="stop-opacity:1;stop-color:#be1f40" /></linearGradient><clipPath
       id="clipPath42"
       clipPathUnits="userSpaceOnUse"><path
         id="path44"
         d="m 247.168,216.191 c 0.234,0 0.465,-0.058 0.691,-0.09 l 1.551,-0.254 c 2.86,-0.433 5.723,-0.863 8.59,-1.261 l 1.152,-0.164 c 0.422,-0.051 0.848,-0.157 1.278,-0.254 0.843,-0.196 1.668,-0.477 2.457,-0.84 1.543,-0.692 2.968,-1.621 4.215,-2.762 2.293,-2.16 4.121,-4.765 5.378,-7.656 1.055,-2.34 1.856,-4.785 2.387,-7.297 0.039,-0.184 0.227,-0.293 0.403,-0.242 0.984,0.293 1.98,0.551 3,0.75 4.375,0.906 8.859,1.16 13.304,0.75 8.504,-0.684 16.606,-3.91 23.25,-9.262 2.988,-2.437 5.461,-5.445 7.285,-8.84 3.477,-6.422 3.477,-14.164 0,-20.582 -1.316,-2.465 -2.988,-4.722 -4.964,-6.699 -0.114,-0.117 -0.114,-0.305 0,-0.426 1.933,-2.211 4.304,-4.73 6.335,-6.75 1.082,-1.074 2.192,-2.101 3.325,-3.043 0.57,-0.472 1.144,-0.918 1.722,-1.308 0.313,-0.215 0.633,-0.41 0.969,-0.582 0.156,-0.094 0.324,-0.172 0.496,-0.235 0.192,-0.039 0.391,-0.039 0.582,0 0.164,0.004 0.317,0.067 0.438,0.172 0.172,0.195 0.156,0.547 0.23,0.75 0.117,0.336 0.281,0.656 0.488,0.945 2.25,3.27 5.086,6.243 6.872,9.833 2.804,5.648 0,12.355 2.55,17.761 2.481,5.25 12,8.586 6.75,15.555 -2.078,2.766 -5.019,4.637 -7.066,7.394 -4.551,6.145 -8.129,11.079 -14.363,15.75 -9.196,6.84 -19.25,12.375 -29.34,17.762 -7.41,3.953 -16.621,4.5 -24.981,4.242 -4.359,-0.132 -9.097,0 -13.074,-2.054 -3.89,-1.778 -7.258,-5.243 -9.89,-8.375 l -0.055,-0.063 c -0.645,-0.769 -1.363,-1.48 -2.137,-2.121 -0.066,-0.059 -0.398,-0.277 -0.234,-0.383 0.125,-0.074 0.265,-0.113 0.406,-0.121 z" /></clipPath><linearGradient
       id="linearGradient48"
       spreadMethod="pad"
       gradientTransform="matrix(0.75,0,0,-0.75,-72.564112,263.44249)"
       gradientUnits="userSpaceOnUse"
       y2="105.5"
       x2="562.57001"
       y1="105.5"
       x1="425.70001"><stop
         id="stop50"
         offset="0"
         style="stop-opacity:1;stop-color:#e65627" /><stop
         id="stop52"
         offset="1"
         style="stop-opacity:1;stop-color:#be1f40" /></linearGradient><clipPath
       id="clipPath60"
       clipPathUnits="userSpaceOnUse"><path
         id="path62"
         d="m 183.883,147.996 c 3.125,-1.445 6.133,-3.129 9,-5.035 l 1.058,-0.703 1.004,-0.676 c 0.637,-0.418 1.254,-0.863 1.907,-1.258 1.281,-0.82 2.586,-1.605 3.921,-2.348 5.399,-2.98 11.094,-5.386 16.997,-7.179 3,-0.914 6,-1.68 9.058,-2.317 2.942,-0.652 5.949,-0.972 8.961,-0.953 2.918,-0.016 5.813,0.535 8.523,1.621 1.317,0.563 2.555,1.289 3.688,2.168 1.164,0.942 2.238,1.981 3.219,3.11 2.019,2.421 3.89,4.964 5.601,7.613 1.352,2.004 2.715,4.027 4.239,6 0.414,0.515 0.371,1.265 -0.106,1.726 -1.851,1.735 -3.469,3.707 -4.808,5.864 -4.973,7.906 -4.973,17.965 0,25.867 2.433,3.871 5.699,7.148 9.562,9.594 2.215,1.418 4.578,2.589 7.043,3.504 0.371,0.128 0.559,0.542 0.414,0.906 -0.852,2.133 -1.914,4.176 -3.172,6.097 -1.43,2.274 -3.285,4.247 -5.469,5.805 -1.015,0.676 -2.136,1.184 -3.316,1.5 -0.281,0.082 -0.57,0.149 -0.859,0.195 -0.286,0.063 -0.575,0.106 -0.864,0.129 -0.293,0.039 -0.589,0.059 -0.886,0.051 l -1.004,0 c -2.926,0 -5.844,0.059 -8.77,0.121 -5.84,0.098 -11.676,0.352 -17.554,0.703 -4.196,0.25 -8.364,1.84 -12.536,1.11 -0.343,-0.059 -0.687,-0.133 -1.035,-0.207 -0.75,-0.168 -1.437,-0.36 -2.144,-0.578 -1.5,-0.465 -2.946,-1.02 -4.379,-1.629 -1.434,-0.606 -2.774,-1.231 -4.141,-1.891 L 206,206.398 c -3.328,-1.664 -6,-4.5 -9.328,-6.054 -2.961,-1.321 -5.836,-2.825 -8.61,-4.5 -5.664,-3.493 -11.703,-7.965 -15.324,-13.852 -3.98,-6.465 -4.328,-14.578 -3.89,-21.961 0.062,-2.512 0.511,-5 1.324,-7.379 1.344,-0.336 2.664,-0.691 3.992,-1.086 3.324,-0.945 6.574,-2.14 9.719,-3.57 z" /></clipPath><linearGradient
       id="linearGradient66"
       spreadMethod="pad"
       gradientTransform="matrix(0.75,0,0,-0.75,-72.564112,263.44249)"
       gradientUnits="userSpaceOnUse"
       y2="125.3"
       x2="461.07001"
       y1="125.3"
       x1="321.72"><stop
         id="stop68"
         offset="0"
         style="stop-opacity:1;stop-color:#e65627" /><stop
         id="stop70"
         offset="1"
         style="stop-opacity:1;stop-color:#be1f40" /></linearGradient><clipPath
       id="clipPath78"
       clipPathUnits="userSpaceOnUse"><path
         id="path80"
         d="m 208.688,83.074 c 3.652,0 6.75,3.391 6.75,7.125 -0.043,3.711 -3.04,6.711 -6.75,6.75 l -13.165,0 0,-13.867 13.165,-0.008 z" /></clipPath><linearGradient
       id="linearGradient84"
       spreadMethod="pad"
       gradientTransform="matrix(0.75,0,0,-0.75,-72.564112,263.44249)"
       gradientUnits="userSpaceOnUse"
       y2="231.22"
       x2="384.03"
       y1="231.22"
       x1="357.42999"><stop
         id="stop86"
         offset="0"
         style="stop-opacity:1;stop-color:#e65627" /><stop
         id="stop88"
         offset="1"
         style="stop-opacity:1;stop-color:#be1f40" /></linearGradient><clipPath
       id="clipPath96"
       clipPathUnits="userSpaceOnUse"><path
         id="path98"
         d="m 277.461,23.285 c 5.574,6.48 10.996,13.101 15.914,20.101 0.75,1.086 1.426,2.106 2.086,3.27 0.66,1.16 1.281,2.363 1.898,3.621 1.239,2.512 2.438,5.25 3.84,8.004 0.344,0.688 0.711,1.395 1.094,2.082 0.383,0.691 0.75,1.398 1.172,2.059 0.793,1.324 1.617,2.632 2.465,3.929 1.711,2.575 3.527,5.059 5.453,7.453 0.961,1.192 1.941,2.372 2.949,3.52 0.508,0.574 1.027,1.16 1.5,1.656 l 0.352,0.383 0.238,0.336 0.496,0.66 c 1.34,1.793 2.172,3.91 2.414,6.137 0.152,2.363 -0.246,4.726 -1.152,6.914 -1,2.449 -2.328,4.75 -3.946,6.84 -1.687,2.211 -3.539,4.297 -5.535,6.234 -2.043,1.977 -4.187,3.844 -6.429,5.594 -1.118,0.883 -2.25,1.746 -3.418,2.57 -0.586,0.414 -1.172,0.828 -1.754,1.215 l -0.438,0.285 c -0.203,0.129 -0.402,0.266 -0.59,0.414 -0.437,0.317 -0.832,0.684 -1.179,1.094 l -0.082,0.098 c -0.172,0.242 -0.336,0.472 -0.489,0.75 -0.156,0.304 -0.289,0.621 -0.398,0.945 -0.188,0.66 -0.227,1.352 -0.117,2.027 0.195,1.059 0.648,2.055 1.328,2.895 1.055,1.289 2.297,2.414 3.679,3.344 2.418,1.66 4.989,3.089 7.672,4.269 0.125,0.047 0.239,0.121 0.332,0.215 0.622,0.703 1.075,1.535 1.329,2.437 0.371,1.223 0.621,2.481 0.75,3.75 0.144,1.309 0.222,2.622 0.23,3.938 l 0,1.305 c 0.008,0.879 -0.914,1.457 -1.703,1.066 -4.965,-2.476 -10.348,-4.004 -15.875,-4.5 -4.445,-0.406 -8.926,-0.152 -13.297,0.75 -4.449,0.93 -8.691,2.652 -12.527,5.086 -0.555,0.359 -1.11,0.75 -1.641,1.133 -0.555,0.398 -1.328,0.25 -1.695,-0.324 -2.895,-4.629 -5.063,-9.789 -8.461,-14.528 -1.004,-1.402 -2.129,-2.707 -3.367,-3.906 -1.309,-1.223 -2.77,-2.27 -4.344,-3.121 -3.137,-1.629 -6.563,-2.625 -10.086,-2.926 -3.414,-0.312 -6.856,-0.242 -10.254,0.211 -3.277,0.406 -6.555,0.945 -9.809,1.649 -6.566,1.402 -12.957,3.535 -19.05,6.355 -1.536,0.707 -3.051,1.457 -4.543,2.25 -0.75,0.387 -1.5,0.824 -2.25,1.234 l -1.043,0.602 -1,0.555 c -2.606,1.457 -5.317,2.711 -8.114,3.75 l -1.449,0.504 c -0.086,0.035 -0.183,0 -0.23,-0.083 -12.196,-18.855 -8.699,-42.187 -2.485,-62.429 1.762,-5.746 3.278,-11.68 5.575,-17.25 l 0,48.304 c 0.007,0.938 0.773,1.688 1.711,1.68 l 26.632,0 c 10.66,0.028 19.34,-8.574 19.407,-19.234 0,-8.192 -5.422,-14.778 -13.161,-17.899 l 12.196,-22.601 c 0.73,-1.153 -0.141,-2.649 -1.5,-2.582 l -11.836,0 c -0.582,-0.008 -1.125,0.297 -1.426,0.797 0,0 -11.84,23.593 -11.855,23.601 l -6.122,0 0,-22.679 c -0.003,-0.942 -0.769,-1.704 -1.711,-1.704 l -5.308,0 c 13.836,-20.07 34.019,-36 57.121,-43.183 1.047,-0.332 8.473,-1.766 9.5,-1.36 1.191,0.399 2.324,0.946 3.375,1.629 2.629,1.856 5.133,3.883 7.5,6.059 2.281,2.215 4.438,4.555 6.457,7.012 1.676,1.89 3.348,3.812 5.004,5.738 z m -13.199,23.25 c -8.481,0 -16.614,3.367 -22.61,9.363 -5.996,5.996 -9.363,14.129 -9.363,22.61 0,8.48 3.367,16.613 9.363,22.609 5.996,5.996 14.129,9.363 22.61,9.363 7.5,0 15.676,-3.121 21.75,-8.371 0.8,-0.566 0.886,-1.726 0.179,-2.406 l -7.035,-7.5 c -0.679,-0.606 -1.691,-0.641 -2.406,-0.082 -3.383,3.113 -7.305,4.273 -11.672,4.273 -8.812,0 -16.086,-6.75 -17.348,-15.343 -1.867,-12.7 10.165,-22.743 22.653,-19.801 0.922,0.215 1.824,0.5 2.707,0.847 l 0,5.153 -5.598,0 c -0.918,-0.043 -1.687,0.687 -1.695,1.605 l 0,8.864 c 0.004,0.941 0.769,1.703 1.711,1.703 l 17.887,0 c 0.906,-0.036 1.613,-0.782 1.605,-1.688 l 0.09,-23.961 c -0.055,-0.547 -0.309,-1.054 -0.711,-1.426 -6.754,-3.796 -14.371,-5.789 -22.117,-5.781 l 0,-0.031 z" /></clipPath><linearGradient
       id="linearGradient102"
       spreadMethod="pad"
       gradientTransform="matrix(0.75,0,0,-0.75,-72.564112,263.44249)"
       gradientUnits="userSpaceOnUse"
       y2="251.17999"
       x2="522.56"
       y1="251.17999"
       x1="323.79001"><stop
         id="stop104"
         offset="0"
         style="stop-opacity:1;stop-color:#e65627" /><stop
         id="stop106"
         offset="1"
         style="stop-opacity:1;stop-color:#be1f40" /></linearGradient><clipPath
       id="clipPath114"
       clipPathUnits="userSpaceOnUse"><path
         id="path116"
         d="m 356.535,106.062 c -1.105,13.649 -7.695,22.574 -19.402,29.153 -0.684,0.414 -1.41,0.75 -2.168,0.996 -0.445,0.121 -0.91,0.121 -1.352,0 -0.48,-0.117 -0.968,-0.239 -1.453,-0.344 -0.488,-0.106 -0.797,-0.172 -1.238,-0.238 -0.399,-0.071 -0.805,-0.071 -1.199,0 l -0.496,0.117 -0.407,0.152 c -0.855,0.379 -1.652,0.887 -2.363,1.5 -0.652,0.539 -1.242,1.102 -1.812,1.672 -1.133,1.141 -2.176,2.324 -3.18,3.524 -1.953,2.347 -4,4.988 -5.77,7.5 -0.043,0.05 -0.121,0.05 -0.164,0 l -0.75,-0.672 c -1.324,-1.098 -2.719,-2.098 -4.179,-3 -0.043,-0.024 -0.067,-0.075 -0.059,-0.121 0.219,-1.321 0.367,-2.618 0.473,-3.946 0.113,-1.383 0.152,-2.769 0.121,-4.156 -0.02,-1.43 -0.18,-2.859 -0.481,-4.258 -0.293,-1.629 -1.078,-3.125 -2.25,-4.293 l -0.066,-0.066 -0.25,-0.133 c -2.481,-1.348 -4.836,-2.914 -7.035,-4.688 -1.004,-0.792 -1.887,-1.722 -2.625,-2.769 -0.231,-0.32 -0.379,-0.695 -0.434,-1.086 0,-0.187 0,-0.121 0.211,-0.324 0.133,-0.113 0.273,-0.219 0.426,-0.309 0.105,-0.07 0.219,-0.133 0.332,-0.191 l 0.508,-0.281 c 0.675,-0.375 1.328,-0.75 1.972,-1.137 1.305,-0.75 2.582,-1.582 3.832,-2.418 2.528,-1.688 4.961,-3.508 7.293,-5.457 2.379,-1.985 4.606,-4.149 6.657,-6.473 2.164,-2.418 3.992,-5.113 5.433,-8.019 1.582,-3.157 2.395,-6.645 2.375,-10.176 0,-0.914 -0.133,-1.832 -0.254,-2.746 l -0.293,-1.344 c -0.09,-0.449 -0.207,-0.895 -0.359,-1.324 -0.547,-1.727 -1.301,-3.379 -2.25,-4.922 l -0.75,-1.156 -0.383,-0.571 -0.359,-0.457 c -0.504,-0.613 -0.922,-1.152 -1.352,-1.715 -0.855,-1.117 -1.687,-2.25 -2.488,-3.406 -1.617,-2.304 -3.117,-4.672 -4.5,-7.094 -0.692,-1.21 -1.352,-2.437 -1.981,-3.675 -0.316,-0.625 -0.617,-1.239 -0.894,-1.84 l -0.848,-1.867 c -1.109,-2.535 -2.144,-5.25 -3.344,-8.082 -0.597,-1.418 -1.238,-2.852 -1.964,-4.301 -0.727,-1.445 -1.559,-2.93 -2.414,-4.305 -1.602,-2.547 -3.254,-5.07 -4.957,-7.566 -1.704,-2.489 -3.481,-4.957 -5.25,-7.364 -1.77,-2.41 -3.668,-4.824 -5.618,-7.195 -3.941,-4.883 -8.289,-9.426 -13,-13.574 -1.238,-0.879 -1.035,-1.762 0.618,-1.598 4.636,0.082 9.253,0.602 13.793,1.555 35.707,7.551 58.332,42.09 65.894,75.75 2.121,9.383 3.223,19.094 2.453,28.738 z" /></clipPath><linearGradient
       id="linearGradient120"
       spreadMethod="pad"
       gradientTransform="matrix(0.75,0,0,-0.75,-72.564112,263.44249)"
       gradientUnits="userSpaceOnUse"
       y2="251.19"
       x2="572.46002"
       y1="251.19"
       x1="460.64001"><stop
         id="stop122"
         offset="0"
         style="stop-opacity:1;stop-color:#e65627" /><stop
         id="stop124"
         offset="1"
         style="stop-opacity:1;stop-color:#be1f40" /></linearGradient></defs><g
     transform="matrix(1.25,0,0,-1.25,0,286.7038)"
     id="g10"><g
       id="g12"><path
         id="path14"
         style="fill:#010101;fill-opacity:1;fill-rule:nonzero;stroke:none"
         d="m 33.703,110.57 c 7.481,-0.125 14.633,-3.074 20.031,-8.25 0.782,-0.629 0.825,-1.805 0.09,-2.488 l -6.941,-7.219 c -0.617,-0.637 -1.637,-0.637 -2.25,0 -3.317,2.926 -7.582,4.539 -12,4.547 -10.067,0 -17.461,-8.379 -17.461,-18.352 0,-9.976 7.5,-18.074 17.551,-18.074 4.351,0.004 8.566,1.512 11.929,4.274 0.688,0.554 1.676,0.515 2.321,-0.09 l 6.941,-7.395 c 0.598,-0.707 0.559,-1.75 -0.09,-2.41 C 48.031,49.496 40.254,46.39 32.18,46.484 22.551,46.422 13.406,50.703 7.289,58.136 1.168,65.574 -1.273,75.371 0.637,84.808 c 2.937,15.598 17.195,26.348 33.066,25.762 z" /><path
         id="path16"
         style="fill:#010101;fill-opacity:1;fill-rule:nonzero;stroke:none"
         d="m 60.051,108.011 c 0,0.938 0.758,1.696 1.695,1.696 l 36.871,0 c 0.934,0 1.695,-0.758 1.695,-1.696 l 0,-9.703 c 0,-0.937 -0.761,-1.695 -1.695,-1.695 l -24.652,0 0,-11.012 20.25,0 c 0.941,-0.004 1.703,-0.765 1.707,-1.707 l 0,-9.691 c 0,-0.938 -0.758,-1.695 -1.695,-1.695 l -20.25,0 0,-12 24.656,0 c 0.929,0 1.687,-0.754 1.691,-1.688 l 0,-9.75 c 0,-0.934 -0.758,-1.691 -1.691,-1.687 l -36.887,0 c -0.934,-0.004 -1.695,0.753 -1.695,1.687 l 0,58.941 z" /><path
         id="path18"
         style="fill:#010101;fill-opacity:1;fill-rule:nonzero;stroke:none"
         d="m 113.93,109.176 c 0.132,0.793 0.8,1.39 1.605,1.425 l 1.426,0 c 0.609,-0.05 1.164,-0.382 1.5,-0.894 l 20.664,-38.473 0.18,0 20.675,38.457 c 0.332,0.52 0.887,0.848 1.5,0.895 l 1.458,0 c 0.804,-0.035 1.472,-0.629 1.601,-1.426 l 10.066,-59.852 c 0.219,-1.05 -0.621,-2.023 -1.695,-1.957 l -10.5,0 c -0.82,0.035 -1.512,0.618 -1.687,1.418 l -4.012,27.528 -0.18,0 -14.992,-28.856 c -0.328,-0.535 -0.879,-0.894 -1.5,-0.972 l -1.605,0 c -0.629,0.062 -1.188,0.425 -1.5,0.972 l -15.051,28.86 -0.195,0 -3.918,-27.524 c -0.149,-0.816 -0.864,-1.414 -1.696,-1.418 l -10.5,0 c -1.066,-0.058 -1.906,0.906 -1.691,1.957 l 10.047,59.86 z" /><g
         id="g20"><g
           clip-path="url(#clipPath24)"
           id="g22"><g
             id="g28"><path
               id="path36"
               style="fill:url(#linearGradient30);stroke:none"
               d="m 319.477,168.531 c -0.024,3.074 -0.797,6.102 -2.25,8.813 -1.563,2.91 -3.684,5.484 -6.243,7.574 -5.679,4.574 -12.601,7.34 -19.875,7.933 -3.812,0.344 -7.652,0.118 -11.398,-0.668 -3.809,-0.797 -7.441,-2.273 -10.727,-4.363 -3.312,-2.101 -6.109,-4.922 -8.187,-8.25 -4.262,-6.769 -4.262,-15.383 0,-22.156 2.078,-3.317 4.883,-6.121 8.195,-8.203 3.285,-2.09 6.918,-3.567 10.727,-4.36 3.742,-0.777 7.582,-1 11.39,-0.66 7.266,0.602 14.184,3.363 19.864,7.93 2.554,2.086 4.672,4.656 6.238,7.558 1.469,2.719 2.246,5.758 2.266,8.852 z" /></g></g></g><g
         id="g38"><g
           clip-path="url(#clipPath42)"
           id="g40"><g
             id="g46"><path
               id="path54"
               style="fill:url(#linearGradient48);stroke:none"
               d="m 247.168,216.191 c 0.234,0 0.465,-0.058 0.691,-0.09 l 1.551,-0.254 c 2.86,-0.433 5.723,-0.863 8.59,-1.261 l 1.152,-0.164 c 0.422,-0.051 0.848,-0.157 1.278,-0.254 0.843,-0.196 1.668,-0.477 2.457,-0.84 1.543,-0.692 2.968,-1.621 4.215,-2.762 2.293,-2.16 4.121,-4.765 5.378,-7.656 1.055,-2.34 1.856,-4.785 2.387,-7.297 0.039,-0.184 0.227,-0.293 0.403,-0.242 0.984,0.293 1.98,0.551 3,0.75 4.375,0.906 8.859,1.16 13.304,0.75 8.504,-0.684 16.606,-3.91 23.25,-9.262 2.988,-2.437 5.461,-5.445 7.285,-8.84 3.477,-6.422 3.477,-14.164 0,-20.582 -1.316,-2.465 -2.988,-4.722 -4.964,-6.699 -0.114,-0.117 -0.114,-0.305 0,-0.426 1.933,-2.211 4.304,-4.73 6.335,-6.75 1.082,-1.074 2.192,-2.101 3.325,-3.043 0.57,-0.472 1.144,-0.918 1.722,-1.308 0.313,-0.215 0.633,-0.41 0.969,-0.582 0.156,-0.094 0.324,-0.172 0.496,-0.235 0.192,-0.039 0.391,-0.039 0.582,0 0.164,0.004 0.317,0.067 0.438,0.172 0.172,0.195 0.156,0.547 0.23,0.75 0.117,0.336 0.281,0.656 0.488,0.945 2.25,3.27 5.086,6.243 6.872,9.833 2.804,5.648 0,12.355 2.55,17.761 2.481,5.25 12,8.586 6.75,15.555 -2.078,2.766 -5.019,4.637 -7.066,7.394 -4.551,6.145 -8.129,11.079 -14.363,15.75 -9.196,6.84 -19.25,12.375 -29.34,17.762 -7.41,3.953 -16.621,4.5 -24.981,4.242 -4.359,-0.132 -9.097,0 -13.074,-2.054 -3.89,-1.778 -7.258,-5.243 -9.89,-8.375 l -0.055,-0.063 c -0.645,-0.769 -1.363,-1.48 -2.137,-2.121 -0.066,-0.059 -0.398,-0.277 -0.234,-0.383 0.125,-0.074 0.265,-0.113 0.406,-0.121 z" /></g></g></g><g
         id="g56"><g
           clip-path="url(#clipPath60)"
           id="g58"><g
             id="g64"><path
               id="path72"
               style="fill:url(#linearGradient66);stroke:none"
               d="m 183.883,147.996 c 3.125,-1.445 6.133,-3.129 9,-5.035 l 1.058,-0.703 1.004,-0.676 c 0.637,-0.418 1.254,-0.863 1.907,-1.258 1.281,-0.82 2.586,-1.605 3.921,-2.348 5.399,-2.98 11.094,-5.386 16.997,-7.179 3,-0.914 6,-1.68 9.058,-2.317 2.942,-0.652 5.949,-0.972 8.961,-0.953 2.918,-0.016 5.813,0.535 8.523,1.621 1.317,0.563 2.555,1.289 3.688,2.168 1.164,0.942 2.238,1.981 3.219,3.11 2.019,2.421 3.89,4.964 5.601,7.613 1.352,2.004 2.715,4.027 4.239,6 0.414,0.515 0.371,1.265 -0.106,1.726 -1.851,1.735 -3.469,3.707 -4.808,5.864 -4.973,7.906 -4.973,17.965 0,25.867 2.433,3.871 5.699,7.148 9.562,9.594 2.215,1.418 4.578,2.589 7.043,3.504 0.371,0.128 0.559,0.542 0.414,0.906 -0.852,2.133 -1.914,4.176 -3.172,6.097 -1.43,2.274 -3.285,4.247 -5.469,5.805 -1.015,0.676 -2.136,1.184 -3.316,1.5 -0.281,0.082 -0.57,0.149 -0.859,0.195 -0.286,0.063 -0.575,0.106 -0.864,0.129 -0.293,0.039 -0.589,0.059 -0.886,0.051 l -1.004,0 c -2.926,0 -5.844,0.059 -8.77,0.121 -5.84,0.098 -11.676,0.352 -17.554,0.703 -4.196,0.25 -8.364,1.84 -12.536,1.11 -0.343,-0.059 -0.687,-0.133 -1.035,-0.207 -0.75,-0.168 -1.437,-0.36 -2.144,-0.578 -1.5,-0.465 -2.946,-1.02 -4.379,-1.629 -1.434,-0.606 -2.774,-1.231 -4.141,-1.891 L 206,206.398 c -3.328,-1.664 -6,-4.5 -9.328,-6.054 -2.961,-1.321 -5.836,-2.825 -8.61,-4.5 -5.664,-3.493 -11.703,-7.965 -15.324,-13.852 -3.98,-6.465 -4.328,-14.578 -3.89,-21.961 0.062,-2.512 0.511,-5 1.324,-7.379 1.344,-0.336 2.664,-0.691 3.992,-1.086 3.324,-0.945 6.574,-2.14 9.719,-3.57 z" /></g></g></g><g
         id="g74"><g
           clip-path="url(#clipPath78)"
           id="g76"><g
             id="g82"><path
               id="path90"
               style="fill:url(#linearGradient84);stroke:none"
               d="m 208.688,83.074 c 3.652,0 6.75,3.391 6.75,7.125 -0.043,3.711 -3.04,6.711 -6.75,6.75 l -13.165,0 0,-13.867 13.165,-0.008 z" /></g></g></g><g
         id="g92"><g
           clip-path="url(#clipPath96)"
           id="g94"><g
             id="g100"><path
               id="path108"
               style="fill:url(#linearGradient102);stroke:none"
               d="m 277.461,23.285 c 5.574,6.48 10.996,13.101 15.914,20.101 0.75,1.086 1.426,2.106 2.086,3.27 0.66,1.16 1.281,2.363 1.898,3.621 1.239,2.512 2.438,5.25 3.84,8.004 0.344,0.688 0.711,1.395 1.094,2.082 0.383,0.691 0.75,1.398 1.172,2.059 0.793,1.324 1.617,2.632 2.465,3.929 1.711,2.575 3.527,5.059 5.453,7.453 0.961,1.192 1.941,2.372 2.949,3.52 0.508,0.574 1.027,1.16 1.5,1.656 l 0.352,0.383 0.238,0.336 0.496,0.66 c 1.34,1.793 2.172,3.91 2.414,6.137 0.152,2.363 -0.246,4.726 -1.152,6.914 -1,2.449 -2.328,4.75 -3.946,6.84 -1.687,2.211 -3.539,4.297 -5.535,6.234 -2.043,1.977 -4.187,3.844 -6.429,5.594 -1.118,0.883 -2.25,1.746 -3.418,2.57 -0.586,0.414 -1.172,0.828 -1.754,1.215 l -0.438,0.285 c -0.203,0.129 -0.402,0.266 -0.59,0.414 -0.437,0.317 -0.832,0.684 -1.179,1.094 l -0.082,0.098 c -0.172,0.242 -0.336,0.472 -0.489,0.75 -0.156,0.304 -0.289,0.621 -0.398,0.945 -0.188,0.66 -0.227,1.352 -0.117,2.027 0.195,1.059 0.648,2.055 1.328,2.895 1.055,1.289 2.297,2.414 3.679,3.344 2.418,1.66 4.989,3.089 7.672,4.269 0.125,0.047 0.239,0.121 0.332,0.215 0.622,0.703 1.075,1.535 1.329,2.437 0.371,1.223 0.621,2.481 0.75,3.75 0.144,1.309 0.222,2.622 0.23,3.938 l 0,1.305 c 0.008,0.879 -0.914,1.457 -1.703,1.066 -4.965,-2.476 -10.348,-4.004 -15.875,-4.5 -4.445,-0.406 -8.926,-0.152 -13.297,0.75 -4.449,0.93 -8.691,2.652 -12.527,5.086 -0.555,0.359 -1.11,0.75 -1.641,1.133 -0.555,0.398 -1.328,0.25 -1.695,-0.324 -2.895,-4.629 -5.063,-9.789 -8.461,-14.528 -1.004,-1.402 -2.129,-2.707 -3.367,-3.906 -1.309,-1.223 -2.77,-2.27 -4.344,-3.121 -3.137,-1.629 -6.563,-2.625 -10.086,-2.926 -3.414,-0.312 -6.856,-0.242 -10.254,0.211 -3.277,0.406 -6.555,0.945 -9.809,1.649 -6.566,1.402 -12.957,3.535 -19.05,6.355 -1.536,0.707 -3.051,1.457 -4.543,2.25 -0.75,0.387 -1.5,0.824 -2.25,1.234 l -1.043,0.602 -1,0.555 c -2.606,1.457 -5.317,2.711 -8.114,3.75 l -1.449,0.504 c -0.086,0.035 -0.183,0 -0.23,-0.083 -12.196,-18.855 -8.699,-42.187 -2.485,-62.429 1.762,-5.746 3.278,-11.68 5.575,-17.25 l 0,48.304 c 0.007,0.938 0.773,1.688 1.711,1.68 l 26.632,0 c 10.66,0.028 19.34,-8.574 19.407,-19.234 0,-8.192 -5.422,-14.778 -13.161,-17.899 l 12.196,-22.601 c 0.73,-1.153 -0.141,-2.649 -1.5,-2.582 l -11.836,0 c -0.582,-0.008 -1.125,0.297 -1.426,0.797 0,0 -11.84,23.593 -11.855,23.601 l -6.122,0 0,-22.679 c -0.003,-0.942 -0.769,-1.704 -1.711,-1.704 l -5.308,0 c 13.836,-20.07 34.019,-36 57.121,-43.183 1.047,-0.332 8.473,-1.766 9.5,-1.36 1.191,0.399 2.324,0.946 3.375,1.629 2.629,1.856 5.133,3.883 7.5,6.059 2.281,2.215 4.438,4.555 6.457,7.012 1.676,1.89 3.348,3.812 5.004,5.738 z m -13.199,23.25 c -8.481,0 -16.614,3.367 -22.61,9.363 -5.996,5.996 -9.363,14.129 -9.363,22.61 0,8.48 3.367,16.613 9.363,22.609 5.996,5.996 14.129,9.363 22.61,9.363 7.5,0 15.676,-3.121 21.75,-8.371 0.8,-0.566 0.886,-1.726 0.179,-2.406 l -7.035,-7.5 c -0.679,-0.606 -1.691,-0.641 -2.406,-0.082 -3.383,3.113 -7.305,4.273 -11.672,4.273 -8.812,0 -16.086,-6.75 -17.348,-15.343 -1.867,-12.7 10.165,-22.743 22.653,-19.801 0.922,0.215 1.824,0.5 2.707,0.847 l 0,5.153 -5.598,0 c -0.918,-0.043 -1.687,0.687 -1.695,1.605 l 0,8.864 c 0.004,0.941 0.769,1.703 1.711,1.703 l 17.887,0 c 0.906,-0.036 1.613,-0.782 1.605,-1.688 l 0.09,-23.961 c -0.055,-0.547 -0.309,-1.054 -0.711,-1.426 -6.754,-3.796 -14.371,-5.789 -22.117,-5.781 l 0,-0.031 z" /></g></g></g><g
         id="g110"><g
           clip-path="url(#clipPath114)"
           id="g112"><g
             id="g118"><path
               id="path126"
               style="fill:url(#linearGradient120);stroke:none"
               d="m 356.535,106.062 c -1.105,13.649 -7.695,22.574 -19.402,29.153 -0.684,0.414 -1.41,0.75 -2.168,0.996 -0.445,0.121 -0.91,0.121 -1.352,0 -0.48,-0.117 -0.968,-0.239 -1.453,-0.344 -0.488,-0.106 -0.797,-0.172 -1.238,-0.238 -0.399,-0.071 -0.805,-0.071 -1.199,0 l -0.496,0.117 -0.407,0.152 c -0.855,0.379 -1.652,0.887 -2.363,1.5 -0.652,0.539 -1.242,1.102 -1.812,1.672 -1.133,1.141 -2.176,2.324 -3.18,3.524 -1.953,2.347 -4,4.988 -5.77,7.5 -0.043,0.05 -0.121,0.05 -0.164,0 l -0.75,-0.672 c -1.324,-1.098 -2.719,-2.098 -4.179,-3 -0.043,-0.024 -0.067,-0.075 -0.059,-0.121 0.219,-1.321 0.367,-2.618 0.473,-3.946 0.113,-1.383 0.152,-2.769 0.121,-4.156 -0.02,-1.43 -0.18,-2.859 -0.481,-4.258 -0.293,-1.629 -1.078,-3.125 -2.25,-4.293 l -0.066,-0.066 -0.25,-0.133 c -2.481,-1.348 -4.836,-2.914 -7.035,-4.688 -1.004,-0.792 -1.887,-1.722 -2.625,-2.769 -0.231,-0.32 -0.379,-0.695 -0.434,-1.086 0,-0.187 0,-0.121 0.211,-0.324 0.133,-0.113 0.273,-0.219 0.426,-0.309 0.105,-0.07 0.219,-0.133 0.332,-0.191 l 0.508,-0.281 c 0.675,-0.375 1.328,-0.75 1.972,-1.137 1.305,-0.75 2.582,-1.582 3.832,-2.418 2.528,-1.688 4.961,-3.508 7.293,-5.457 2.379,-1.985 4.606,-4.149 6.657,-6.473 2.164,-2.418 3.992,-5.113 5.433,-8.019 1.582,-3.157 2.395,-6.645 2.375,-10.176 0,-0.914 -0.133,-1.832 -0.254,-2.746 l -0.293,-1.344 c -0.09,-0.449 -0.207,-0.895 -0.359,-1.324 -0.547,-1.727 -1.301,-3.379 -2.25,-4.922 l -0.75,-1.156 -0.383,-0.571 -0.359,-0.457 c -0.504,-0.613 -0.922,-1.152 -1.352,-1.715 -0.855,-1.117 -1.687,-2.25 -2.488,-3.406 -1.617,-2.304 -3.117,-4.672 -4.5,-7.094 -0.692,-1.21 -1.352,-2.437 -1.981,-3.675 -0.316,-0.625 -0.617,-1.239 -0.894,-1.84 l -0.848,-1.867 c -1.109,-2.535 -2.144,-5.25 -3.344,-8.082 -0.597,-1.418 -1.238,-2.852 -1.964,-4.301 -0.727,-1.445 -1.559,-2.93 -2.414,-4.305 -1.602,-2.547 -3.254,-5.07 -4.957,-7.566 -1.704,-2.489 -3.481,-4.957 -5.25,-7.364 -1.77,-2.41 -3.668,-4.824 -5.618,-7.195 -3.941,-4.883 -8.289,-9.426 -13,-13.574 -1.238,-0.879 -1.035,-1.762 0.618,-1.598 4.636,0.082 9.253,0.602 13.793,1.555 35.707,7.551 58.332,42.09 65.894,75.75 2.121,9.383 3.223,19.094 2.453,28.738 z" /></g></g></g></g></g></svg>