<?xml version="1.0" encoding="UTF-8"?>
<!DOCTYPE svg PUBLIC "-//W3C//DTD SVG 1.1//EN" "http://www.w3.org/Graphics/SVG/1.1/DTD/svg11.dtd">
<svg version="1.1" xmlns="http://www.w3.org/2000/svg" xmlns:xlink="http://www.w3.org/1999/xlink" x="0" y="0" width="445.975" height="286.704" viewBox="0, 0, 445.975, 286.704">
  <g id="g10">
    <path d="M42.129,148.491 C51.48,148.648 60.42,152.334 67.168,158.804 C68.145,159.59 68.199,161.06 67.28,161.914 L58.604,170.938 C57.833,171.734 56.558,171.734 55.791,170.938 C51.645,167.28 46.314,165.264 40.791,165.254 C28.208,165.254 18.965,175.728 18.965,188.194 C18.965,200.664 28.34,210.786 40.904,210.786 C46.343,210.781 51.611,208.896 55.815,205.444 C56.675,204.751 57.91,204.8 58.716,205.556 L67.393,214.8 C68.14,215.684 68.091,216.988 67.28,217.813 C60.039,224.834 50.318,228.716 40.225,228.599 C28.189,228.676 16.758,223.325 9.111,214.034 C1.46,204.736 -1.591,192.49 0.796,180.694 C4.468,161.196 22.29,147.759 42.129,148.491 z" fill="#BBBBBB" id="path14"/>
    <path d="M75.064,151.69 C75.064,150.518 76.011,149.57 77.183,149.57 L123.271,149.57 C124.439,149.57 125.39,150.518 125.39,151.69 L125.39,163.819 C125.39,164.99 124.439,165.938 123.271,165.938 L92.456,165.938 L92.456,179.703 L117.769,179.703 C118.945,179.708 119.897,180.659 119.902,181.836 L119.902,193.95 C119.902,195.123 118.955,196.069 117.784,196.069 L92.471,196.069 L92.471,211.069 L123.291,211.069 C124.452,211.069 125.4,212.011 125.405,213.179 L125.405,225.366 C125.405,226.534 124.457,227.48 123.291,227.475 L77.183,227.475 C76.015,227.48 75.064,226.534 75.064,225.366 L75.064,151.69 z" fill="#BBBBBB" id="path16"/>
    <path d="M142.413,150.234 C142.577,149.243 143.413,148.496 144.419,148.453 L146.201,148.453 C146.963,148.515 147.656,148.93 148.076,149.57 L173.906,197.661 L174.131,197.661 L199.975,149.59 C200.39,148.94 201.084,148.53 201.85,148.471 L203.673,148.471 C204.678,148.515 205.513,149.258 205.674,150.254 L218.256,225.069 C218.53,226.381 217.48,227.598 216.138,227.515 L203.013,227.515 C201.988,227.471 201.122,226.743 200.904,225.743 L195.889,191.333 L195.664,191.333 L176.924,227.403 C176.514,228.071 175.825,228.52 175.049,228.618 L173.043,228.618 C172.256,228.54 171.558,228.086 171.168,227.403 L152.354,191.328 L152.11,191.328 L147.213,225.733 C147.026,226.753 146.133,227.5 145.092,227.505 L131.967,227.505 C130.635,227.578 129.585,226.373 129.854,225.059 L142.413,150.234 z" fill="#BBBBBB" id="path18"/>
    <path d="M399.346,76.04 C399.316,72.198 398.35,68.413 396.534,65.024 C394.58,61.386 391.929,58.169 388.73,55.556 C381.631,49.839 372.979,46.381 363.886,45.64 C359.121,45.21 354.321,45.493 349.639,46.475 C344.878,47.471 340.337,49.316 336.23,51.929 C332.09,54.555 328.594,58.081 325.996,62.241 C320.669,70.703 320.669,81.47 325.996,89.936 C328.594,94.083 332.1,97.588 336.24,100.19 C340.346,102.803 344.887,104.649 349.649,105.64 C354.326,106.611 359.126,106.89 363.886,106.465 C372.969,105.713 381.616,102.261 388.716,96.553 C391.909,93.945 394.556,90.733 396.514,87.105 C398.35,83.706 399.321,79.908 399.346,76.04 z" fill="#BBBBBB"/>
    <path d="M399.346,76.04 C399.316,72.198 398.35,68.413 396.534,65.024 C394.58,61.386 391.929,58.169 388.73,55.556 C381.631,49.839 372.979,46.381 363.886,45.64 C359.121,45.21 354.321,45.493 349.639,46.475 C344.878,47.471 340.337,49.316 336.23,51.929 C332.09,54.555 328.594,58.081 325.996,62.241 C320.669,70.703 320.669,81.47 325.996,89.936 C328.594,94.083 332.1,97.588 336.24,100.19 C340.346,102.803 344.887,104.649 349.649,105.64 C354.326,106.611 359.126,106.89 363.886,106.465 C372.969,105.713 381.616,102.261 388.716,96.553 C391.909,93.945 394.556,90.733 396.514,87.105 C398.35,83.706 399.321,79.908 399.346,76.04 z" fill="#BBBBBB" id="path36"/>
    <path d="M308.96,16.465 C309.253,16.465 309.541,16.538 309.824,16.578 L311.763,16.895 C315.337,17.436 318.916,17.974 322.5,18.471 L323.94,18.676 C324.467,18.74 325,18.873 325.538,18.994 C326.591,19.239 327.622,19.59 328.609,20.044 C330.538,20.909 332.319,22.07 333.878,23.496 C336.744,26.196 339.029,29.453 340.6,33.066 C341.919,35.991 342.92,39.048 343.584,42.188 C343.633,42.418 343.867,42.554 344.087,42.49 C345.318,42.124 346.562,41.801 347.837,41.553 C353.306,40.42 358.911,40.103 364.467,40.615 C375.098,41.47 385.225,45.503 393.53,52.193 C397.265,55.239 400.356,58.999 402.636,63.243 C406.983,71.27 406.983,80.948 402.636,88.97 C400.991,92.051 398.901,94.873 396.431,97.344 C396.289,97.49 396.289,97.725 396.431,97.876 C398.848,100.64 401.811,103.789 404.35,106.314 C405.703,107.656 407.09,108.94 408.506,110.118 C409.219,110.708 409.936,111.265 410.659,111.753 C411.05,112.021 411.45,112.265 411.87,112.48 C412.065,112.598 412.275,112.695 412.49,112.774 C412.73,112.823 412.979,112.823 413.217,112.774 C413.422,112.769 413.614,112.69 413.765,112.559 C413.98,112.315 413.96,111.875 414.052,111.621 C414.199,111.201 414.404,110.801 414.663,110.44 C417.475,106.353 421.02,102.636 423.253,98.149 C426.758,91.089 423.253,82.705 426.44,75.948 C429.541,69.385 441.44,65.215 434.878,56.504 C432.28,53.046 428.604,50.708 426.045,47.261 C420.356,39.58 415.884,33.413 408.091,27.574 C396.596,19.024 384.029,12.105 371.416,5.371 C362.154,0.43 350.64,-0.254 340.19,0.069 C334.741,0.234 328.819,0.069 323.848,2.636 C318.985,4.859 314.775,9.19 311.485,13.105 L311.416,13.184 C310.61,14.145 309.712,15.034 308.745,15.835 C308.663,15.909 308.247,16.181 308.453,16.314 C308.609,16.406 308.784,16.455 308.96,16.465 z" fill="#BBBBBB"/>
    <path d="M308.96,16.465 C309.253,16.465 309.541,16.538 309.824,16.578 L311.763,16.895 C315.337,17.436 318.916,17.974 322.5,18.471 L323.94,18.676 C324.467,18.74 325,18.873 325.538,18.994 C326.591,19.239 327.622,19.59 328.609,20.044 C330.538,20.909 332.319,22.07 333.878,23.496 C336.744,26.196 339.029,29.453 340.6,33.066 C341.919,35.991 342.92,39.048 343.584,42.188 C343.633,42.418 343.867,42.554 344.087,42.49 C345.318,42.124 346.562,41.801 347.837,41.553 C353.306,40.42 358.911,40.103 364.467,40.615 C375.098,41.47 385.225,45.503 393.53,52.193 C397.265,55.239 400.356,58.999 402.636,63.243 C406.983,71.27 406.983,80.948 402.636,88.97 C400.991,92.051 398.901,94.873 396.431,97.344 C396.289,97.49 396.289,97.725 396.431,97.876 C398.848,100.64 401.811,103.789 404.35,106.314 C405.703,107.656 407.09,108.94 408.506,110.118 C409.219,110.708 409.936,111.265 410.659,111.753 C411.05,112.021 411.45,112.265 411.87,112.48 C412.065,112.598 412.275,112.695 412.49,112.774 C412.73,112.823 412.979,112.823 413.217,112.774 C413.422,112.769 413.614,112.69 413.765,112.559 C413.98,112.315 413.96,111.875 414.052,111.621 C414.199,111.201 414.404,110.801 414.663,110.44 C417.475,106.353 421.02,102.636 423.253,98.149 C426.758,91.089 423.253,82.705 426.44,75.948 C429.541,69.385 441.44,65.215 434.878,56.504 C432.28,53.046 428.604,50.708 426.045,47.261 C420.356,39.58 415.884,33.413 408.091,27.574 C396.596,19.024 384.029,12.105 371.416,5.371 C362.154,0.43 350.64,-0.254 340.19,0.069 C334.741,0.234 328.819,0.069 323.848,2.636 C318.985,4.859 314.775,9.19 311.485,13.105 L311.416,13.184 C310.61,14.145 309.712,15.034 308.745,15.835 C308.663,15.909 308.247,16.181 308.453,16.314 C308.609,16.406 308.784,16.455 308.96,16.465 z" fill="#BBBBBB" id="path54"/>
    <path d="M229.854,101.709 C233.76,103.515 237.52,105.62 241.104,108.003 L242.426,108.881 L243.681,109.726 C244.478,110.249 245.249,110.805 246.065,111.299 C247.666,112.324 249.298,113.305 250.966,114.234 C257.715,117.959 264.834,120.966 272.213,123.208 C275.963,124.35 279.713,125.308 283.535,126.104 C287.213,126.919 290.971,127.319 294.736,127.295 C298.384,127.315 302.003,126.626 305.39,125.269 C307.036,124.565 308.584,123.658 310,122.559 C311.455,121.381 312.798,120.083 314.024,118.671 C316.548,115.645 318.886,112.466 321.025,109.155 C322.715,106.65 324.419,104.121 326.324,101.655 C326.841,101.011 326.788,100.074 326.191,99.498 C323.878,97.329 321.855,94.864 320.181,92.168 C313.965,82.285 313.965,69.711 320.181,59.834 C323.223,54.995 327.305,50.899 332.134,47.841 C334.902,46.069 337.856,44.605 340.938,43.461 C341.401,43.301 341.636,42.784 341.455,42.329 C340.39,39.663 339.062,37.109 337.49,34.708 C335.703,31.865 333.384,29.399 330.654,27.451 C329.385,26.606 327.984,25.971 326.509,25.576 C326.158,25.474 325.796,25.39 325.435,25.333 C325.078,25.254 324.716,25.2 324.355,25.171 C323.989,25.123 323.619,25.098 323.247,25.108 L321.993,25.108 C318.335,25.108 314.688,25.034 311.03,24.956 C303.73,24.834 296.435,24.516 289.088,24.078 C283.842,23.765 278.633,21.778 273.418,22.69 C272.989,22.764 272.559,22.856 272.124,22.949 C271.186,23.159 270.328,23.399 269.444,23.671 C267.569,24.253 265.761,24.946 263.97,25.708 C262.178,26.465 260.503,27.246 258.794,28.071 L257.5,28.706 C253.34,30.786 250,34.331 245.84,36.274 C242.139,37.925 238.545,39.805 235.078,41.899 C227.998,46.265 220.449,51.855 215.923,59.214 C210.948,67.295 210.513,77.436 211.06,86.665 C211.138,89.805 211.699,92.915 212.715,95.889 C214.395,96.309 216.045,96.753 217.705,97.246 C221.86,98.428 225.923,99.921 229.854,101.709 z" fill="#BBBBBB"/>
    <path d="M229.854,101.709 C233.76,103.515 237.52,105.62 241.104,108.003 L242.426,108.881 L243.681,109.726 C244.478,110.249 245.249,110.805 246.065,111.299 C247.666,112.324 249.298,113.305 250.966,114.234 C257.715,117.959 264.834,120.966 272.212,123.208 C275.962,124.35 279.712,125.308 283.535,126.104 C287.212,126.919 290.971,127.319 294.736,127.295 C298.384,127.315 302.003,126.626 305.39,125.269 C307.036,124.565 308.584,123.658 310,122.559 C311.455,121.381 312.798,120.083 314.024,118.671 C316.548,115.645 318.886,112.466 321.025,109.155 C322.715,106.65 324.419,104.121 326.324,101.655 C326.841,101.011 326.788,100.074 326.191,99.498 C323.878,97.329 321.855,94.864 320.181,92.168 C313.965,82.285 313.965,69.711 320.181,59.834 C323.223,54.995 327.305,50.899 332.134,47.841 C334.902,46.069 337.856,44.605 340.938,43.461 C341.401,43.301 341.636,42.784 341.455,42.329 C340.39,39.663 339.062,37.109 337.49,34.708 C335.703,31.865 333.384,29.399 330.654,27.451 C329.385,26.606 327.984,25.971 326.509,25.576 C326.158,25.474 325.796,25.39 325.435,25.333 C325.078,25.254 324.716,25.2 324.355,25.171 C323.989,25.123 323.619,25.098 323.247,25.108 L321.992,25.108 C318.335,25.108 314.688,25.034 311.03,24.956 C303.73,24.834 296.435,24.516 289.087,24.078 C283.842,23.765 278.633,21.778 273.418,22.69 C272.989,22.764 272.559,22.856 272.124,22.949 C271.186,23.159 270.328,23.399 269.444,23.671 C267.569,24.253 265.761,24.946 263.97,25.708 C262.177,26.465 260.503,27.246 258.794,28.071 L257.5,28.706 C253.34,30.786 250,34.331 245.84,36.274 C242.139,37.925 238.545,39.805 235.077,41.899 C227.997,46.265 220.449,51.855 215.923,59.214 C210.948,67.295 210.512,77.436 211.06,86.665 C211.137,89.805 211.699,92.915 212.715,95.889 C214.395,96.309 216.045,96.753 217.705,97.246 C221.86,98.428 225.923,99.921 229.854,101.709 z" fill="#BBBBBB" id="path72"/>
    <path d="M260.86,182.861 C265.425,182.861 269.298,178.623 269.298,173.955 C269.244,169.316 265.497,165.566 260.86,165.518 L244.404,165.518 L244.404,182.851 L260.86,182.861 z" fill="#BBBBBB"/>
    <path d="M260.86,182.861 C265.425,182.861 269.298,178.623 269.298,173.955 C269.244,169.316 265.497,165.566 260.86,165.518 L244.404,165.518 L244.404,182.851 L260.86,182.861 z" fill="#BBBBBB" id="path90"/>
    <path d="M346.826,257.598 C353.794,249.498 360.571,241.221 366.719,232.471 C367.656,231.114 368.501,229.839 369.326,228.384 C370.151,226.934 370.928,225.43 371.699,223.858 C373.248,220.718 374.746,217.295 376.499,213.853 C376.929,212.993 377.388,212.109 377.866,211.25 C378.345,210.386 378.804,209.503 379.331,208.676 C380.323,207.021 381.353,205.386 382.413,203.765 C384.551,200.546 386.821,197.441 389.229,194.449 C390.43,192.959 391.655,191.484 392.915,190.049 C393.55,189.331 394.199,188.599 394.79,187.979 L395.23,187.5 L395.528,187.08 L396.148,186.255 C397.823,184.014 398.863,181.368 399.165,178.584 C399.355,175.63 398.858,172.676 397.725,169.941 C396.475,166.88 394.815,164.004 392.793,161.391 C390.684,158.628 388.369,156.02 385.874,153.599 C383.32,151.128 380.64,148.794 377.838,146.606 C376.44,145.503 375.025,144.424 373.565,143.394 C372.833,142.876 372.1,142.359 371.373,141.875 L370.825,141.519 C370.571,141.358 370.323,141.186 370.088,141.001 C369.541,140.605 369.048,140.146 368.614,139.634 L368.511,139.511 C368.296,139.209 368.091,138.921 367.9,138.574 C367.705,138.194 367.539,137.798 367.403,137.393 C367.168,136.568 367.119,135.703 367.256,134.859 C367.5,133.535 368.066,132.29 368.916,131.24 C370.235,129.629 371.788,128.223 373.515,127.06 C376.538,124.985 379.751,123.199 383.105,121.724 C383.261,121.665 383.404,121.573 383.52,121.455 C384.298,120.576 384.864,119.536 385.181,118.409 C385.645,116.88 385.958,115.308 386.119,113.721 C386.299,112.085 386.396,110.444 386.406,108.799 L386.406,107.168 C386.416,106.069 385.264,105.346 384.278,105.835 C378.071,108.93 371.343,110.84 364.434,111.46 C358.878,111.968 353.276,111.65 347.812,110.523 C342.251,109.36 336.949,107.208 332.154,104.165 C331.46,103.716 330.766,103.228 330.103,102.749 C329.409,102.251 328.443,102.436 327.984,103.154 C324.365,108.94 321.655,115.39 317.408,121.314 C316.153,123.066 314.746,124.698 313.199,126.196 C311.562,127.725 309.736,129.034 307.769,130.098 C303.848,132.134 299.565,133.379 295.161,133.755 C290.894,134.145 286.591,134.058 282.344,133.491 C278.248,132.984 274.15,132.31 270.083,131.43 C261.875,129.678 253.886,127.011 246.27,123.486 C244.35,122.603 242.456,121.665 240.591,120.674 C239.654,120.19 238.716,119.644 237.779,119.131 L236.475,118.379 L235.225,117.685 C231.968,115.864 228.579,114.296 225.083,112.998 L223.271,112.368 C223.164,112.324 223.043,112.368 222.984,112.471 C207.739,136.04 212.11,165.205 219.878,190.508 C222.08,197.69 223.975,205.108 226.846,212.07 L226.846,151.69 C226.855,150.518 227.813,149.58 228.985,149.59 L262.275,149.59 C275.6,149.555 286.45,160.308 286.534,173.633 C286.534,183.873 279.756,192.105 270.083,196.006 L285.328,224.258 C286.24,225.699 285.151,227.569 283.453,227.485 L268.658,227.485 C267.93,227.495 267.251,227.114 266.875,226.489 C266.875,226.489 252.075,196.998 252.056,196.988 L244.404,196.988 L244.404,225.336 C244.4,226.514 243.443,227.466 242.265,227.466 L235.63,227.466 C252.925,252.554 278.154,272.466 307.031,281.445 C308.34,281.86 317.623,283.653 318.906,283.145 C320.395,282.646 321.811,281.963 323.125,281.109 C326.411,278.789 329.541,276.255 332.5,273.535 C335.351,270.766 338.048,267.841 340.571,264.77 C342.666,262.408 344.756,260.005 346.826,257.598 z M330.328,228.535 C319.726,228.535 309.56,224.326 302.065,216.831 C294.57,209.336 290.361,199.17 290.361,188.569 C290.361,177.969 294.57,167.803 302.065,160.308 C309.56,152.813 319.726,148.604 330.328,148.604 C339.703,148.604 349.923,152.505 357.515,159.068 C358.515,159.775 358.623,161.225 357.739,162.075 L348.945,171.45 C348.096,172.208 346.831,172.251 345.938,171.553 C341.709,167.661 336.806,166.211 331.348,166.211 C320.333,166.211 311.24,174.649 309.663,185.39 C307.329,201.265 322.369,213.819 337.979,210.141 C339.131,209.873 340.259,209.516 341.363,209.083 L341.363,202.641 L334.365,202.641 C333.218,202.695 332.256,201.783 332.246,200.635 L332.246,189.555 C332.251,188.379 333.208,187.426 334.385,187.426 L356.744,187.426 C357.876,187.471 358.76,188.404 358.75,189.536 L358.863,219.488 C358.794,220.171 358.476,220.805 357.974,221.27 C349.531,226.015 340.01,228.506 330.328,228.496 L330.328,228.535 z" fill="#BBBBBB"/>
    <path d="M346.826,257.598 C353.794,249.498 360.571,241.221 366.719,232.471 C367.656,231.114 368.501,229.839 369.326,228.384 C370.151,226.934 370.927,225.43 371.699,223.858 C373.247,220.718 374.746,217.295 376.499,213.853 C376.929,212.993 377.388,212.109 377.866,211.25 C378.345,210.386 378.804,209.503 379.331,208.676 C380.323,207.021 381.353,205.386 382.413,203.765 C384.551,200.546 386.821,197.441 389.229,194.449 C390.43,192.959 391.655,191.484 392.915,190.049 C393.55,189.331 394.199,188.599 394.79,187.979 L395.23,187.5 L395.527,187.08 L396.147,186.255 C397.823,184.014 398.862,181.368 399.165,178.584 C399.355,175.63 398.858,172.676 397.725,169.941 C396.475,166.88 394.815,164.004 392.793,161.391 C390.684,158.628 388.369,156.02 385.874,153.599 C383.32,151.128 380.64,148.794 377.837,146.606 C376.44,145.503 375.025,144.424 373.565,143.394 C372.832,142.876 372.1,142.359 371.372,141.875 L370.825,141.519 C370.571,141.358 370.323,141.186 370.087,141.001 C369.541,140.605 369.047,140.146 368.614,139.634 L368.511,139.511 C368.296,139.209 368.091,138.921 367.9,138.574 C367.705,138.194 367.539,137.798 367.402,137.393 C367.168,136.568 367.119,135.703 367.256,134.859 C367.5,133.535 368.066,132.29 368.916,131.24 C370.235,129.629 371.788,128.223 373.515,127.06 C376.538,124.985 379.751,123.199 383.105,121.724 C383.261,121.665 383.404,121.573 383.52,121.455 C384.297,120.576 384.864,119.536 385.181,118.409 C385.645,116.88 385.957,115.308 386.119,113.721 C386.299,112.085 386.396,110.444 386.406,108.799 L386.406,107.168 C386.416,106.069 385.264,105.346 384.277,105.835 C378.071,108.93 371.342,110.84 364.434,111.46 C358.878,111.968 353.276,111.65 347.812,110.523 C342.251,109.36 336.949,107.208 332.154,104.165 C331.46,103.716 330.766,103.228 330.103,102.749 C329.409,102.251 328.443,102.436 327.984,103.154 C324.365,108.94 321.655,115.39 317.408,121.314 C316.152,123.066 314.746,124.698 313.199,126.196 C311.562,127.725 309.736,129.034 307.769,130.098 C303.848,132.134 299.565,133.379 295.161,133.755 C290.894,134.145 286.591,134.058 282.344,133.491 C278.247,132.984 274.15,132.31 270.082,131.43 C261.875,129.678 253.886,127.011 246.27,123.486 C244.35,122.603 242.456,121.665 240.591,120.674 C239.654,120.19 238.716,119.644 237.779,119.131 L236.475,118.379 L235.225,117.685 C231.967,115.864 228.579,114.296 225.083,112.998 L223.271,112.368 C223.164,112.324 223.042,112.368 222.984,112.471 C207.739,136.04 212.11,165.205 219.878,190.508 C222.08,197.69 223.975,205.108 226.846,212.07 L226.846,151.69 C226.855,150.518 227.812,149.58 228.985,149.59 L262.275,149.59 C275.6,149.555 286.45,160.308 286.534,173.633 C286.534,183.873 279.756,192.105 270.082,196.006 L285.328,224.258 C286.24,225.699 285.151,227.569 283.453,227.485 L268.658,227.485 C267.93,227.495 267.251,227.114 266.875,226.489 C266.875,226.489 252.075,196.998 252.056,196.988 L244.404,196.988 L244.404,225.336 C244.4,226.514 243.443,227.466 242.265,227.466 L235.63,227.466 C252.925,252.554 278.154,272.466 307.031,281.445 C308.34,281.86 317.622,283.653 318.906,283.145 C320.395,282.646 321.811,281.963 323.125,281.109 C326.411,278.789 329.541,276.255 332.5,273.535 C335.351,270.766 338.047,267.841 340.571,264.77 C342.666,262.408 344.756,260.005 346.826,257.598 z M330.328,228.535 C319.726,228.535 309.56,224.326 302.065,216.831 C294.57,209.336 290.361,199.17 290.361,188.569 C290.361,177.969 294.57,167.803 302.065,160.308 C309.56,152.813 319.726,148.604 330.328,148.604 C339.703,148.604 349.922,152.505 357.515,159.068 C358.515,159.775 358.622,161.225 357.739,162.075 L348.945,171.45 C348.096,172.208 346.831,172.251 345.938,171.553 C341.709,167.661 336.806,166.211 331.348,166.211 C320.332,166.211 311.24,174.649 309.663,185.39 C307.329,201.265 322.369,213.819 337.979,210.141 C339.131,209.873 340.259,209.516 341.362,209.083 L341.362,202.641 L334.365,202.641 C333.217,202.695 332.256,201.783 332.246,200.635 L332.246,189.555 C332.251,188.379 333.207,187.426 334.385,187.426 L356.744,187.426 C357.876,187.471 358.76,188.404 358.75,189.536 L358.862,219.488 C358.794,220.171 358.476,220.805 357.974,221.27 C349.531,226.015 340.01,228.506 330.328,228.496 L330.328,228.535 z" fill="#BBBBBB" id="path108"/>
    <path d="M445.669,154.126 C444.288,137.065 436.05,125.909 421.416,117.685 C420.561,117.168 419.654,116.748 418.706,116.44 C418.15,116.289 417.569,116.289 417.016,116.44 C416.416,116.586 415.806,116.739 415.2,116.87 C414.59,117.003 414.204,117.085 413.652,117.168 C413.154,117.256 412.646,117.256 412.154,117.168 L411.534,117.021 L411.025,116.831 C409.956,116.358 408.96,115.723 408.071,114.956 C407.256,114.283 406.519,113.579 405.806,112.866 C404.39,111.44 403.086,109.961 401.831,108.461 C399.39,105.528 396.831,102.226 394.619,99.086 C394.565,99.024 394.467,99.024 394.414,99.086 L393.476,99.926 C391.821,101.299 390.078,102.549 388.253,103.676 C388.199,103.706 388.169,103.77 388.179,103.828 C388.453,105.479 388.638,107.1 388.77,108.76 C388.911,110.489 388.96,112.221 388.921,113.955 C388.896,115.743 388.696,117.529 388.32,119.278 C387.954,121.314 386.973,123.184 385.508,124.644 L385.425,124.726 L385.113,124.893 C382.011,126.578 379.068,128.535 376.319,130.753 C375.064,131.743 373.96,132.905 373.038,134.214 C372.749,134.614 372.564,135.083 372.495,135.571 C372.495,135.805 372.495,135.723 372.759,135.976 C372.925,136.118 373.1,136.25 373.291,136.363 C373.423,136.45 373.565,136.529 373.706,136.601 L374.341,136.953 C375.185,137.421 376.001,137.89 376.806,138.374 C378.438,139.311 380.034,140.351 381.596,141.396 C384.756,143.506 387.798,145.781 390.713,148.218 C393.686,150.699 396.47,153.404 399.034,156.309 C401.739,159.331 404.024,162.7 405.825,166.333 C407.803,170.279 408.819,174.639 408.794,179.053 C408.794,180.195 408.628,181.343 408.476,182.485 L408.11,184.165 C407.997,184.726 407.851,185.284 407.661,185.82 C406.978,187.979 406.035,190.044 404.849,191.973 L403.911,193.418 L403.433,194.131 L402.984,194.703 C402.354,195.469 401.831,196.143 401.294,196.846 C400.225,198.243 399.185,199.659 398.184,201.104 C396.163,203.984 394.288,206.944 392.559,209.971 C391.694,211.484 390.869,213.018 390.083,214.565 C389.688,215.346 389.311,216.114 388.965,216.865 L387.905,219.199 C386.519,222.368 385.225,225.761 383.725,229.301 C382.979,231.074 382.178,232.866 381.27,234.678 C380.361,236.484 379.321,238.34 378.253,240.059 C376.25,243.243 374.185,246.396 372.056,249.516 C369.926,252.628 367.705,255.713 365.494,258.721 C363.281,261.734 360.909,264.751 358.471,267.715 C353.545,273.819 348.11,279.498 342.221,284.683 C340.674,285.781 340.928,286.885 342.994,286.68 C348.789,286.578 354.56,285.928 360.235,284.736 C404.869,275.298 433.15,232.124 442.603,190.049 C445.254,178.32 446.631,166.181 445.669,154.126 z" fill="#BBBBBB"/>
    <path d="M445.669,154.126 C444.288,137.065 436.05,125.909 421.416,117.685 C420.561,117.168 419.654,116.748 418.706,116.44 C418.15,116.289 417.569,116.289 417.016,116.44 C416.416,116.586 415.806,116.739 415.2,116.87 C414.59,117.003 414.204,117.085 413.652,117.168 C413.154,117.256 412.646,117.256 412.154,117.168 L411.534,117.021 L411.025,116.831 C409.956,116.358 408.96,115.723 408.071,114.956 C407.256,114.283 406.519,113.579 405.806,112.866 C404.39,111.44 403.086,109.961 401.831,108.461 C399.39,105.528 396.831,102.226 394.619,99.086 C394.565,99.024 394.467,99.024 394.414,99.086 L393.476,99.926 C391.821,101.299 390.078,102.549 388.253,103.676 C388.199,103.706 388.169,103.77 388.179,103.828 C388.453,105.479 388.638,107.1 388.77,108.76 C388.911,110.489 388.96,112.221 388.921,113.955 C388.896,115.743 388.696,117.529 388.32,119.278 C387.954,121.314 386.973,123.184 385.508,124.644 L385.425,124.726 L385.113,124.893 C382.011,126.578 379.068,128.535 376.319,130.753 C375.064,131.743 373.96,132.905 373.038,134.214 C372.749,134.614 372.564,135.083 372.495,135.571 C372.495,135.805 372.495,135.723 372.759,135.976 C372.925,136.118 373.1,136.25 373.291,136.363 C373.423,136.45 373.565,136.529 373.706,136.601 L374.341,136.953 C375.185,137.421 376.001,137.89 376.806,138.374 C378.438,139.311 380.034,140.351 381.596,141.396 C384.756,143.506 387.798,145.781 390.712,148.218 C393.686,150.699 396.47,153.404 399.034,156.309 C401.739,159.331 404.024,162.7 405.825,166.333 C407.802,170.279 408.819,174.639 408.794,179.053 C408.794,180.195 408.628,181.343 408.476,182.485 L408.11,184.165 C407.997,184.726 407.851,185.284 407.661,185.82 C406.978,187.979 406.035,190.044 404.849,191.973 L403.911,193.418 L403.432,194.131 L402.984,194.703 C402.354,195.469 401.831,196.143 401.294,196.846 C400.225,198.243 399.185,199.659 398.184,201.104 C396.163,203.984 394.288,206.944 392.559,209.971 C391.694,211.484 390.869,213.018 390.082,214.565 C389.688,215.346 389.311,216.114 388.965,216.865 L387.905,219.199 C386.519,222.368 385.225,225.761 383.725,229.301 C382.979,231.074 382.177,232.866 381.27,234.678 C380.361,236.484 379.321,238.34 378.253,240.059 C376.25,243.243 374.185,246.396 372.056,249.516 C369.926,252.628 367.705,255.713 365.494,258.721 C363.281,261.734 360.909,264.751 358.471,267.715 C353.545,273.819 348.11,279.498 342.221,284.683 C340.674,285.781 340.927,286.885 342.994,286.68 C348.789,286.578 354.56,285.928 360.235,284.736 C404.869,275.298 433.15,232.124 442.603,190.049 C445.254,178.32 446.631,166.181 445.669,154.126 z" fill="#BBBBBB" id="path126"/>
  </g>
</svg>
