<?xml version="1.0" encoding="UTF-8"?>
<!DOCTYPE svg PUBLIC "-//W3C//DTD SVG 1.1//EN" "http://www.w3.org/Graphics/SVG/1.1/DTD/svg11.dtd">
<svg version="1.1" xmlns="http://www.w3.org/2000/svg" xmlns:xlink="http://www.w3.org/1999/xlink" x="0" y="0" width="590" height="590" viewBox="0, 0, 590, 590">
  <defs>
    <clipPath id="Clip_1">
      <path d="M0.741,-4.884 L589.119,-4.884 L589.119,594.744 L0.741,594.744 z M476.26,15.804 L113.6,15.804 C59.589,15.804 15.804,57.921 15.804,109.874 L15.804,479.986 C15.804,531.939 59.589,574.056 113.6,574.056 L476.26,574.056 C530.271,574.056 574.056,531.939 574.056,479.986 L574.056,109.874 C574.056,57.921 530.271,15.804 476.26,15.804 z"/>
    </clipPath>
    <filter id="Shadow_2">
      <feGaussianBlur in="SourceAlpha" stdDeviation="7.031"/>
      <feOffset dx="0" dy="5.625" result="offsetblur"/>
      <feFlood flood-color="#000000"/>
      <feComposite in2="offsetblur" operator="in"/>
    </filter>
    <radialGradient id="Gradient_1" gradientUnits="userSpaceOnUse" cx="260.017" cy="297.969" r="288.581">
      <stop offset="0" stop-color="#E65526"/>
      <stop offset="1" stop-color="#BE1F3F"/>
    </radialGradient>
    <clipPath id="Clip_3">
      <path d="M-12.259,-17.884 L603.118,-17.884 L603.118,608.743 L-12.259,608.743 z M476.76,29.804 C523.43,29.804 561.056,65.996 561.056,110.374 L561.056,480.486 C561.056,524.864 523.43,561.056 476.76,561.056 L114.1,561.056 C67.43,561.056 29.804,524.864 29.804,480.486 L29.804,110.374 C29.804,65.996 67.43,29.804 114.1,29.804 L476.76,29.804 z M476.76,2.804 L114.1,2.804 C52.748,2.804 2.804,50.845 2.804,110.374 L2.804,480.486 C2.804,540.015 52.748,588.056 114.1,588.056 L476.76,588.056 C538.112,588.056 588.056,540.015 588.056,480.486 L588.056,110.374 C588.056,50.845 538.112,2.804 476.76,2.804 z"/>
    </clipPath>
    <filter id="Shadow_4">
      <feGaussianBlur in="SourceAlpha" stdDeviation="7.031"/>
      <feOffset dx="0" dy="5.625" result="offsetblur"/>
      <feFlood flood-color="#000000"/>
      <feComposite in2="offsetblur" operator="in"/>
    </filter>
    <clipPath id="Clip_5">
      <path d="M-15.477,-21.414 L605.477,-21.414 L605.477,611.414 L-15.477,611.414 z M486.404,0.367 L103.596,0.367 C46.584,0.367 0.367,44.823 0.367,99.663 L0.367,490.337 C0.367,545.177 46.584,589.633 103.596,589.633 L486.404,589.633 C543.416,589.633 589.633,545.177 589.633,490.337 L589.633,99.663 C589.633,44.823 543.416,0.367 486.404,0.367 z"/>
    </clipPath>
    <filter id="Shadow_6">
      <feGaussianBlur in="SourceAlpha" stdDeviation="7.422"/>
      <feOffset dx="0" dy="5.938" result="offsetblur"/>
      <feFlood flood-color="#000000"/>
      <feComposite in2="offsetblur" operator="in"/>
    </filter>
    <radialGradient id="Gradient_2" gradientUnits="userSpaceOnUse" cx="258.147" cy="298.208" r="304.613">
      <stop offset="0" stop-color="#FFFFFF"/>
      <stop offset="0.753" stop-color="#FFFFFF"/>
      <stop offset="1" stop-color="#F1F1F1"/>
    </radialGradient>
    <linearGradient id="Gradient_3" gradientUnits="userSpaceOnUse" x1="412.828" y1="215.378" x2="502.701" y2="215.378">
      <stop offset="0" stop-color="#E65627"/>
      <stop offset="1" stop-color="#BE1F40"/>
    </linearGradient>
    <linearGradient id="Gradient_4" gradientUnits="userSpaceOnUse" x1="397.134" y1="193.817" x2="546.291" y2="193.817">
      <stop offset="0" stop-color="#E65627"/>
      <stop offset="1" stop-color="#BE1F40"/>
    </linearGradient>
    <linearGradient id="Gradient_5" gradientUnits="userSpaceOnUse" x1="283.82" y1="215.395" x2="435.679" y2="215.395">
      <stop offset="0" stop-color="#E65627"/>
      <stop offset="1" stop-color="#BE1F40"/>
    </linearGradient>
    <linearGradient id="Gradient_6" gradientUnits="userSpaceOnUse" x1="435.211" y1="352.586" x2="557.069" y2="352.586">
      <stop offset="0" stop-color="#E65627"/>
      <stop offset="1" stop-color="#BE1F40"/>
    </linearGradient>
    <linearGradient id="Gradient_7" gradientUnits="userSpaceOnUse" x1="319.563" y1="330.483" x2="348.519" y2="330.483">
      <stop offset="0" stop-color="#DF4C2B"/>
      <stop offset="1" stop-color="#D9442F"/>
    </linearGradient>
    <linearGradient id="Gradient_8" gradientUnits="userSpaceOnUse" x1="285.431" y1="352.6" x2="502.291" y2="352.6">
      <stop offset="0" stop-color="#E45427"/>
      <stop offset="1" stop-color="#BE1F40"/>
    </linearGradient>
    <linearGradient id="Gradient_9" gradientUnits="userSpaceOnUse" x1="285.431" y1="352.6" x2="502.291" y2="352.6">
      <stop offset="0" stop-color="#E45427"/>
      <stop offset="1" stop-color="#BE1F40"/>
    </linearGradient>
  </defs>
  <g id="Layer_2">
    <g>
      <path d="M476.26,15.804 C530.271,15.804 574.056,57.921 574.056,109.874 L574.056,479.986 C574.056,531.939 530.271,574.056 476.26,574.056 L113.6,574.056 C59.589,574.056 15.804,531.939 15.804,479.986 L15.804,109.874 C15.804,57.921 59.589,15.804 113.6,15.804 L476.26,15.804 z" clip-path="url(#Clip_1)" filter="url(#Shadow_2)" fill="rgba(0,0,0,0.75)"/>
      <path d="M113.6,15.804 L476.26,15.804 C530.271,15.804 574.056,57.921 574.056,109.874 L574.056,479.986 C574.056,531.939 530.271,574.056 476.26,574.056 L113.6,574.056 C59.589,574.056 15.804,531.939 15.804,479.986 L15.804,109.874 C15.804,57.921 59.589,15.804 113.6,15.804 z" fill="url(#Gradient_1)"/>
    </g>
    <g>
      <path d="M476.76,2.804 C538.112,2.804 588.056,50.845 588.056,110.374 L588.056,480.486 C588.056,540.015 538.112,588.056 476.76,588.056 L114.1,588.056 C52.748,588.056 2.804,540.015 2.804,480.486 L2.804,110.374 C2.804,50.845 52.748,2.804 114.1,2.804 L476.76,2.804 z M476.76,29.804 L114.1,29.804 C67.43,29.804 29.804,65.996 29.804,110.374 L29.804,480.486 C29.804,524.864 67.43,561.056 114.1,561.056 L476.76,561.056 C523.43,561.056 561.056,524.864 561.056,480.486 L561.056,110.374 C561.056,65.996 523.43,29.804 476.76,29.804 z" clip-path="url(#Clip_3)" filter="url(#Shadow_4)" fill="rgba(0,0,0,0.75)"/>
      <path d="M114.1,16.304 L476.76,16.304 C530.771,16.304 574.556,58.421 574.556,110.374 L574.556,480.486 C574.556,532.439 530.771,574.556 476.76,574.556 L114.1,574.556 C60.089,574.556 16.304,532.439 16.304,480.486 L16.304,110.374 C16.304,58.421 60.089,16.304 114.1,16.304 z" fill-opacity="0" stroke="#FFFFFF" stroke-width="27"/>
    </g>
    <path d="M93.05,300.591 C103.345,300.764 113.195,304.821 120.626,311.948 C121.138,312.361 121.446,312.976 121.469,313.633 C121.493,314.291 121.231,314.926 120.75,315.375 L111.19,325.307 C110.785,325.728 110.226,325.967 109.641,325.967 C109.057,325.967 108.497,325.728 108.092,325.307 C103.529,321.285 97.657,319.061 91.574,319.051 C77.719,319.051 67.539,330.583 67.539,344.314 C67.539,358.045 77.863,369.195 91.698,369.195 C97.688,369.188 103.492,367.109 108.123,363.31 C109.068,362.547 110.431,362.6 111.314,363.434 L120.874,373.614 C121.697,374.584 121.643,376.022 120.75,376.928 C112.775,384.665 102.065,388.937 90.954,388.811 C77.699,388.894 65.112,383 56.689,372.766 C48.265,362.531 44.901,349.046 47.531,336.054 C51.578,314.58 71.204,299.786 93.05,300.591 z" fill="#FFFFFF"/>
    <path d="M129.319,304.112 C129.319,302.823 130.363,301.778 131.652,301.778 L182.405,301.778 C183.694,301.778 184.739,302.823 184.739,304.112 L184.739,317.471 C184.739,318.76 183.694,319.804 182.405,319.804 L148.47,319.804 L148.47,334.96 L176.345,334.96 C177.643,334.966 178.693,336.016 178.699,337.314 L178.699,350.653 C178.699,351.941 177.654,352.986 176.366,352.986 L148.491,352.986 L148.491,352.986 L148.491,369.505 L148.491,369.505 L182.426,369.505 C183.711,369.505 184.754,370.543 184.759,371.827 L184.759,385.249 C184.759,385.867 184.513,386.459 184.075,386.895 C183.637,387.331 183.044,387.574 182.426,387.572 L131.652,387.572 C131.034,387.574 130.441,387.331 130.003,386.895 C129.565,386.459 129.319,385.867 129.319,385.249 z" fill="#FFFFFF"/>
    <path d="M203.487,302.511 C203.667,301.417 204.589,300.599 205.697,300.55 L207.658,300.55 C208.499,300.619 209.261,301.072 209.723,301.778 L238.166,354.741 L238.414,354.741 L266.877,301.799 C267.335,301.088 268.099,300.633 268.942,300.57 L270.945,300.57 C272.053,300.619 272.975,301.438 273.154,302.532 L287.009,384.918 C287.153,385.603 286.968,386.315 286.51,386.844 C286.052,387.372 285.374,387.657 284.676,387.613 L270.222,387.613 C269.094,387.568 268.139,386.766 267.9,385.662 L262.376,347.772 L262.128,347.772 L241.49,387.489 C241.041,388.226 240.282,388.72 239.426,388.831 L237.216,388.831 C236.351,388.746 235.58,388.246 235.151,387.489 L214.431,347.762 L214.162,347.762 L208.773,385.651 C208.565,386.778 207.585,387.597 206.44,387.603 L191.986,387.603 C191.29,387.642 190.614,387.356 190.157,386.829 C189.701,386.301 189.514,385.592 189.653,384.908 z" fill="#FFFFFF"/>
    <path d="M491.699,219.509 C491.669,215.274 490.606,211.11 488.602,207.378 C486.452,203.372 483.533,199.828 480.013,196.951 C472.193,190.651 462.661,186.846 452.654,186.028 C447.406,185.556 442.118,185.866 436.961,186.947 C431.719,188.045 426.717,190.081 422.197,192.955 C417.636,195.848 413.783,199.729 410.924,204.312 C405.058,213.632 405.058,225.489 410.924,234.809 C413.787,239.375 417.645,243.236 422.208,246.104 C426.727,248.977 431.729,251.01 436.971,252.102 C442.126,253.174 447.41,253.481 452.654,253.011 C462.652,252.185 472.173,248.384 479.992,242.098 C483.509,239.226 486.428,235.69 488.582,231.691 C490.604,227.947 491.674,223.764 491.699,219.509 z" fill="#FFFFFF"/>
    <path d="M392.318,155.195 C392.639,155.195 392.959,155.278 393.268,155.319 L395.405,155.67 C399.339,156.269 403.283,156.857 407.227,157.404 L408.816,157.632 C409.395,157.704 409.983,157.848 410.572,157.983 C411.736,158.253 412.871,158.64 413.958,159.139 C416.082,160.089 418.04,161.371 419.76,162.938 C422.914,165.916 425.432,169.502 427.162,173.479 C428.614,176.7 429.714,180.068 430.445,183.524 C430.472,183.644 430.547,183.748 430.653,183.811 C430.758,183.873 430.885,183.889 431.003,183.855 C432.355,183.452 433.729,183.101 435.133,182.822 C441.153,181.576 447.325,181.228 453.448,181.79 C465.153,182.733 476.305,187.176 485.452,194.54 C489.562,197.899 492.969,202.035 495.477,206.712 C500.267,215.548 500.267,226.206 495.477,235.042 C493.667,238.436 491.364,241.543 488.643,244.261 C488.489,244.427 488.489,244.684 488.643,244.85 C491.306,247.895 494.569,251.364 497.366,254.141 C498.853,255.618 500.381,257.032 501.94,258.333 C502.725,258.983 503.52,259.593 504.315,260.129 C504.741,260.426 505.186,260.695 505.646,260.935 C505.863,261.062 506.091,261.169 506.328,261.255 C506.593,261.312 506.868,261.312 507.133,261.255 C507.355,261.25 507.567,261.165 507.732,261.017 C507.969,260.749 507.949,260.264 508.052,259.985 C508.213,259.522 508.439,259.084 508.723,258.684 C511.82,254.183 515.723,250.094 518.18,245.149 C522.041,237.375 518.18,228.145 521.69,220.702 C525.107,213.475 538.209,208.881 530.982,199.289 C528.122,195.48 524.075,192.909 521.256,189.11 C514.99,180.654 510.065,173.861 501.486,167.429 C488.828,158.014 474.984,150.394 461.098,142.982 C450.898,137.541 438.22,136.787 426.708,137.138 C420.71,137.324 414.185,137.138 408.713,139.967 C403.355,142.414 398.719,147.184 395.096,151.499 L395.023,151.582 C394.133,152.643 393.149,153.621 392.081,154.503 C391.988,154.586 391.534,154.885 391.761,155.03 C391.93,155.13 392.122,155.187 392.318,155.195 z" fill="#FFFFFF"/>
    <path d="M305.204,249.072 C309.503,251.063 313.645,253.379 317.592,256 L319.048,256.97 L320.432,257.899 C321.309,258.478 322.156,259.087 323.054,259.634 C324.819,260.759 326.616,261.843 328.453,262.865 C335.885,266.968 343.726,270.279 351.848,272.745 C355.978,274.005 360.107,275.058 364.319,275.936 C368.37,276.835 372.508,277.275 376.657,277.247 C380.674,277.27 384.657,276.512 388.385,275.017 C390.199,274.243 391.906,273.241 393.464,272.033 C395.063,270.737 396.545,269.303 397.893,267.749 C400.675,264.416 403.25,260.916 405.606,257.27 C407.464,254.513 409.343,251.726 411.439,249.01 C412.011,248.3 411.949,247.271 411.294,246.636 C408.743,244.247 406.518,241.533 404.676,238.562 C397.829,227.681 397.829,213.836 404.676,202.954 C408.024,197.626 412.522,193.115 417.84,189.75 C420.889,187.8 424.139,186.184 427.534,184.929 C427.779,184.843 427.977,184.661 428.085,184.425 C428.192,184.189 428.198,183.92 428.102,183.679 C426.933,180.741 425.47,177.929 423.735,175.286 C421.77,172.158 419.213,169.443 416.208,167.295 C414.809,166.365 413.268,165.668 411.645,165.23 C411.256,165.115 410.859,165.025 410.458,164.962 C410.066,164.877 409.67,164.819 409.271,164.786 C408.867,164.73 408.46,164.706 408.052,164.714 L406.669,164.714 C402.643,164.714 398.627,164.631 394.6,164.549 C386.558,164.415 378.525,164.063 370.431,163.578 C364.66,163.238 358.92,161.049 353.18,162.05 C352.705,162.133 352.23,162.236 351.755,162.339 C350.723,162.566 349.773,162.835 348.802,163.134 C346.737,163.774 344.745,164.538 342.773,165.375 C340.801,166.211 338.953,167.068 337.074,167.976 L335.649,168.678 C331.065,170.97 327.39,174.873 322.806,177.01 C318.732,178.829 314.774,180.898 310.954,183.204 C303.159,188.015 294.848,194.169 289.862,202.273 C284.38,211.172 283.905,222.343 284.504,232.502 C284.595,235.961 285.211,239.387 286.331,242.661 C288.179,243.126 289.996,243.611 291.823,244.158 C296.4,245.458 300.873,247.101 305.204,249.072 z" fill="#FFFFFF"/>
    <path d="M542.865,306.794 C541.347,288.005 532.272,275.719 516.156,266.665 C515.217,266.095 514.216,265.634 513.173,265.291 C512.564,265.127 511.923,265.127 511.314,265.291 C510.654,265.457 509.982,265.622 509.311,265.766 C508.64,265.911 508.217,266.004 507.608,266.097 C507.061,266.19 506.503,266.19 505.956,266.097 L505.275,265.932 L504.717,265.725 C503.537,265.201 502.441,264.505 501.465,263.66 C500.567,262.917 499.751,262.143 498.967,261.358 C497.408,259.789 495.973,258.158 494.589,256.506 C491.905,253.274 489.086,249.64 486.65,246.182 C486.621,246.15 486.579,246.132 486.536,246.132 C486.493,246.132 486.452,246.15 486.423,246.182 L485.39,247.111 C483.571,248.618 481.649,249.998 479.64,251.24 C479.579,251.271 479.545,251.338 479.557,251.406 C479.857,253.223 480.063,255.009 480.208,256.836 C480.361,258.738 480.416,260.647 480.373,262.556 C480.349,264.527 480.128,266.492 479.712,268.42 C479.309,270.659 478.228,272.721 476.615,274.325 L476.522,274.418 L476.181,274.604 C472.763,276.455 469.522,278.615 466.497,281.056 C465.115,282.145 463.898,283.428 462.884,284.866 C462.564,285.308 462.358,285.822 462.285,286.363 C462.285,286.621 462.285,286.528 462.574,286.807 C462.756,286.966 462.953,287.108 463.163,287.23 C463.309,287.328 463.461,287.418 463.617,287.499 L464.319,287.881 C465.248,288.397 466.146,288.913 467.034,289.45 C468.831,290.482 470.586,291.628 472.31,292.774 C475.787,295.098 479.136,297.607 482.345,300.29 C485.623,303.022 488.688,306.001 491.513,309.2 C494.49,312.525 497.005,316.237 498.987,320.236 C501.165,324.584 502.286,329.384 502.26,334.246 C502.26,335.506 502.074,336.765 501.909,338.025 L501.909,338.025 L501.506,339.873 C501.385,340.493 501.219,341.104 501.011,341.7 C500.26,344.076 499.22,346.351 497.914,348.473 L496.881,350.063 L496.355,350.847 L495.859,351.477 C495.167,352.324 494.589,353.067 494.001,353.841 C492.824,355.38 491.678,356.939 490.573,358.529 Q487.238,363.288 484.379,368.295 C483.429,369.957 482.52,371.651 481.653,373.354 C481.219,374.211 480.806,375.057 480.424,375.883 L479.258,378.454 C477.73,381.944 476.305,385.681 474.653,389.584 C473.827,391.535 472.95,393.507 471.948,395.499 C470.947,397.492 469.801,399.536 468.624,401.425 Q465.32,406.691 461.8,411.842 C459.456,415.27 457.009,418.667 454.573,421.981 C452.136,425.295 449.524,428.619 446.84,431.881 C441.418,438.607 435.432,444.859 428.948,450.568 C427.245,451.776 427.524,452.994 429.795,452.767 C436.177,452.655 442.534,451.94 448.781,450.63 C497.934,440.234 529.082,392.691 539.489,346.356 C542.411,333.441 543.928,320.071 542.865,306.794 z" fill="#FFFFFF"/>
    <path d="M336.34,338.093 C341.368,338.093 345.632,333.426 345.632,328.285 C345.576,323.177 341.449,319.049 336.34,318.993 L318.221,318.993 L318.221,318.993 L318.221,338.083 L318.221,338.083 z" fill="#FFFFFF"/>
    <path d="M414.278,249.945 C415.028,250.112 414.73,249.978 415.209,250.255 C415.942,250.782 416.706,251.318 417.47,251.814 C422.751,255.162 428.591,257.533 434.711,258.814 C440.729,260.056 446.896,260.404 453.016,259.846 C460.623,259.161 468.036,257.061 474.872,253.652 C475.377,253.4 475.976,253.429 476.454,253.728 C476.932,254.028 477.221,254.554 477.215,255.118 L477.215,256.914 C477.203,258.725 477.096,260.534 476.895,262.334 C476.72,264.085 476.374,265.813 475.863,267.496 C475.514,268.738 474.889,269.885 474.035,270.852 C473.906,270.981 473.751,271.083 473.581,271.151 C469.883,272.771 466.347,274.738 463.02,277.025 C461.114,278.305 459.406,279.856 457.95,281.63 C457.02,282.786 456.392,284.156 456.123,285.615 C455.973,286.545 456.03,287.497 456.288,288.403 C456.434,288.851 456.617,289.286 456.835,289.704 C457.042,290.086 457.269,290.406 457.507,290.736 L457.62,290.87 C458.097,291.436 458.642,291.942 459.241,292.377 C459.503,292.581 459.775,292.77 460.057,292.945 L460.655,293.337 C461.461,293.874 462.266,294.442 463.071,295.01 C464.682,296.146 466.241,297.333 467.779,298.551 C470.864,300.958 473.818,303.529 476.627,306.253 C479.376,308.92 481.923,311.787 484.246,314.832 C486.475,317.71 488.302,320.878 489.676,324.248 C490.928,327.258 491.472,330.514 491.266,333.767 C490.932,336.828 489.784,339.744 487.942,342.212 L487.261,343.12 L486.93,343.585 L486.445,344.112 C485.795,344.793 485.082,345.598 484.38,346.393 C482.997,347.973 481.644,349.594 480.323,351.235 Q476.348,356.181 472.817,361.497 Q471.062,364.171 469.421,366.907 C468.842,367.816 468.337,368.786 467.81,369.736 C467.283,370.686 466.778,371.656 466.303,372.606 C464.372,376.395 462.72,380.163 461.017,383.622 C460.17,385.357 459.313,387.008 458.405,388.609 C457.496,390.209 456.567,391.613 455.535,393.11 C448.762,402.742 441.298,411.859 433.627,420.779 C431.345,423.432 429.043,426.075 426.741,428.676 C423.96,432.058 420.992,435.28 417.852,438.33 C414.591,441.327 411.142,444.113 407.527,446.671 C406.079,447.611 404.518,448.363 402.882,448.912 C401.467,449.469 391.246,447.497 389.801,447.043 C375.412,442.659 362.066,435.568 349.79,426.955 L353.506,426.955 L355.554,420.103 L364.472,420.103 L366.605,426.955 L372.75,426.955 L363.149,396.007 L357.303,396.007 L348.045,425.72 C333.642,415.223 321.407,402.137 311.172,387.597 L318.482,387.597 C319.778,387.597 320.83,386.549 320.836,385.253 L320.836,354.033 L329.26,354.033 C329.281,354.043 345.171,385.835 345.583,386.523 C345.995,387.211 346.742,387.628 347.544,387.617 L363.836,387.617 C364.699,387.66 365.514,387.217 365.949,386.47 C366.383,385.723 366.365,384.795 365.901,384.066 L349.113,352.949 C359.768,348.654 367.232,339.59 367.232,328.316 C367.136,313.638 355.192,301.8 340.514,301.834 L303.853,301.834 C302.564,301.823 301.51,302.858 301.499,304.147 L301.499,370.645 C298.34,362.974 296.254,354.807 293.828,346.899 C285.269,319.034 280.458,286.916 297.245,260.961 C297.308,260.849 297.445,260.8 297.565,260.848 L299.558,261.539 C303.408,262.971 307.143,264.697 310.728,266.701 L312.102,267.465 L313.537,268.291 C314.569,268.859 315.602,269.458 316.634,269.995 Q319.721,271.626 322.89,273.092 C331.279,276.973 340.074,279.906 349.114,281.837 C353.594,282.807 358.106,283.55 362.617,284.108 C367.296,284.732 372.03,284.829 376.731,284.397 C381.579,283.982 386.298,282.614 390.617,280.371 C392.783,279.199 394.792,277.755 396.594,276.076 C398.297,274.425 399.849,272.625 401.23,270.697 C405.907,264.172 408.89,257.069 412.875,250.699 C413.117,250.32 413.504,250.057 413.946,249.973 L414.278,249.945 z M384.355,395.565 Q382.222,395.565 380.067,395.764 Q377.913,395.963 376.12,396.317 L376.12,426.955 L381.966,426.955 L381.966,416.3 Q382.179,416.345 382.67,416.389 Q383.161,416.433 383.673,416.455 Q384.185,416.477 384.654,416.477 L385.337,416.477 Q387.556,416.477 389.625,415.88 Q391.695,415.283 393.316,413.979 Q394.937,412.675 395.919,410.663 Q396.9,408.652 396.9,405.822 Q396.9,402.595 395.769,400.583 Q394.639,398.572 392.847,397.444 Q391.055,396.317 388.814,395.941 Q386.574,395.565 384.355,395.565 z M384.825,400.782 Q385.934,400.782 387.001,401.003 Q388.068,401.224 388.9,401.799 Q389.732,402.374 390.244,403.324 Q390.756,404.275 390.756,405.734 Q390.756,407.458 390.222,408.519 Q389.689,409.58 388.793,410.177 Q387.897,410.774 386.766,410.995 Q385.636,411.216 384.483,411.216 L383.95,411.216 Q383.587,411.216 383.203,411.194 Q382.819,411.172 382.478,411.128 Q382.137,411.083 381.966,411.039 L381.966,401.003 Q382.435,400.915 383.203,400.848 Q383.971,400.782 384.825,400.782 z M409.957,395.565 Q407.823,395.565 405.668,395.764 Q403.514,395.963 401.722,396.317 L401.721,426.955 L407.567,426.955 L407.567,416.3 Q407.781,416.345 408.271,416.389 Q408.762,416.433 409.274,416.455 Q409.786,416.477 410.255,416.477 L410.938,416.477 Q413.157,416.477 415.226,415.88 Q417.296,415.283 418.917,413.979 Q420.539,412.675 421.52,410.663 Q422.501,408.652 422.501,405.822 Q422.501,402.595 421.371,400.583 Q420.24,398.572 418.448,397.444 Q416.656,396.317 414.416,395.941 Q412.175,395.565 409.957,395.565 L409.957,395.565 z M410.426,400.782 Q411.535,400.782 412.602,401.003 Q413.669,401.224 414.501,401.799 Q415.333,402.374 415.845,403.324 Q416.357,404.275 416.357,405.734 Q416.357,407.458 415.824,408.519 Q415.29,409.58 414.394,410.177 Q413.498,410.774 412.367,410.995 Q411.237,411.216 410.085,411.216 L409.551,411.216 Q409.189,411.216 408.805,411.194 Q408.421,411.172 408.079,411.128 Q407.738,411.083 407.567,411.039 L407.567,401.003 Q408.037,400.915 408.805,400.848 Q409.573,400.782 410.426,400.782 L410.426,400.782 z M415.456,300.75 C391.149,300.75 371.445,320.455 371.445,344.762 C371.445,369.069 391.149,388.774 415.456,388.774 L415.456,388.732 C426.12,388.74 436.606,385.999 445.902,380.773 C446.457,380.26 446.806,379.563 446.883,378.811 L446.759,345.825 C446.771,344.581 445.793,343.553 444.55,343.502 L419.927,343.502 C418.631,343.503 417.579,344.55 417.573,345.846 L417.573,358.049 C417.578,358.655 417.829,359.233 418.27,359.65 C418.71,360.067 419.301,360.287 419.906,360.259 L427.608,360.258 L427.608,367.351 C426.396,367.832 425.15,368.222 423.881,368.518 C406.691,372.565 390.131,358.741 392.702,341.262 C394.436,329.431 404.451,320.139 416.582,320.139 C422.59,320.139 427.99,321.739 432.646,326.024 C433.634,326.79 435.027,326.742 435.96,325.91 L445.644,315.586 C446.107,315.14 446.347,314.512 446.299,313.871 C446.251,313.23 445.92,312.644 445.396,312.272 C437.034,305.045 425.781,300.75 415.456,300.75 L415.456,300.75 z" fill="#FFFFFF"/>
    <path d="M360.29,404.894 L363.32,415.239 L356.919,415.239 L359.906,404.894 L360.29,404.894 z" fill="#FFFFFF"/>
  </g>
  <g id="normal">
    <g>
      <g>
        <path d="M486.404,0.367 C543.416,0.367 589.633,44.823 589.633,99.663 L589.633,490.337 C589.633,545.177 543.416,589.633 486.404,589.633 L103.596,589.633 C46.584,589.633 0.367,545.177 0.367,490.337 L0.367,99.663 C0.367,44.823 46.584,0.367 103.596,0.367 L486.404,0.367 z" clip-path="url(#Clip_5)" filter="url(#Shadow_6)" fill="rgba(0,0,0,0.75)"/>
        <path d="M103.596,0.367 L486.404,0.367 C543.416,0.367 589.633,44.823 589.633,99.663 L589.633,490.337 C589.633,545.177 543.416,589.633 486.404,589.633 L103.596,589.633 C46.584,589.633 0.367,545.177 0.367,490.337 L0.367,99.663 C0.367,44.823 46.584,0.367 103.596,0.367 z" fill="url(#Gradient_2)"/>
      </g>
      <g>
        <path d="M81.905,300.976 C92.772,301.159 103.168,305.44 111.012,312.963 C111.553,313.399 111.878,314.048 111.903,314.742 C111.928,315.436 111.651,316.107 111.143,316.581 L101.052,327.065 C100.625,327.51 100.034,327.761 99.417,327.761 C98.8,327.761 98.21,327.51 97.783,327.065 C92.965,322.819 86.768,320.471 80.346,320.461 C65.722,320.461 54.977,332.633 54.977,347.127 C54.977,361.621 65.874,373.391 80.477,373.391 C86.8,373.384 92.926,371.189 97.815,367.179 C98.812,366.374 100.251,366.43 101.183,367.31 L111.274,378.055 C112.142,379.079 112.086,380.597 111.143,381.553 C102.726,389.721 91.421,394.229 79.692,394.096 C65.701,394.184 52.415,387.963 43.523,377.16 C34.631,366.357 31.081,352.123 33.857,338.409 C38.129,315.742 58.845,300.126 81.905,300.976 z" fill="#000000"/>
        <path d="M120.188,304.692 C120.188,303.332 121.291,302.229 122.651,302.229 L176.224,302.229 C177.584,302.229 178.687,303.332 178.687,304.692 L178.687,318.793 C178.687,320.154 177.584,321.256 176.224,321.256 L140.404,321.256 L140.404,337.254 L169.827,337.254 C171.197,337.26 172.306,338.369 172.312,339.739 L172.312,353.818 C172.312,355.179 171.209,356.281 169.849,356.281 L140.425,356.281 L140.425,356.281 L140.425,373.718 L140.425,373.718 L176.246,373.718 C177.602,373.718 178.703,374.814 178.709,376.17 L178.709,390.337 C178.709,390.989 178.449,391.614 177.987,392.074 C177.525,392.534 176.898,392.792 176.246,392.789 L122.651,392.789 C121.999,392.792 121.373,392.534 120.91,392.074 C120.448,391.614 120.188,390.989 120.188,390.337 z" fill="#000000"/>
        <path d="M198.477,303.003 C198.667,301.848 199.64,300.984 200.809,300.932 L202.88,300.932 C203.768,301.005 204.572,301.484 205.059,302.229 L235.083,358.134 L235.344,358.134 L265.389,302.251 C265.872,301.5 266.679,301.02 267.569,300.954 L269.683,300.954 C270.852,301.005 271.825,301.869 272.015,303.024 L286.639,389.988 C286.791,390.71 286.596,391.462 286.113,392.02 C285.629,392.578 284.913,392.878 284.177,392.832 L268.92,392.832 C267.729,392.785 266.72,391.938 266.468,390.772 L260.638,350.778 L260.376,350.778 L238.592,392.701 C238.117,393.479 237.316,394 236.412,394.118 L234.08,394.118 C233.166,394.028 232.353,393.5 231.9,392.701 L210.029,350.767 L209.745,350.767 L204.057,390.762 C203.837,391.951 202.803,392.815 201.594,392.821 L186.337,392.821 C185.602,392.863 184.889,392.561 184.407,392.004 C183.924,391.448 183.728,390.699 183.874,389.977 z" fill="#000000"/>
        <g>
          <path d="M502.701,215.389 C502.669,210.918 501.546,206.523 499.432,202.584 C497.162,198.355 494.081,194.615 490.365,191.577 C482.111,184.928 472.05,180.912 461.486,180.048 C455.947,179.55 450.365,179.876 444.922,181.018 C439.388,182.177 434.109,184.326 429.338,187.36 C424.523,190.414 420.456,194.51 417.438,199.347 C411.247,209.185 411.247,221.702 417.438,231.539 C420.461,236.359 424.532,240.434 429.349,243.461 C434.119,246.494 439.399,248.64 444.933,249.793 C450.373,250.925 455.951,251.248 461.486,250.752 C472.04,249.88 482.09,245.868 490.343,239.233 C494.056,236.201 497.137,232.469 499.41,228.248 C501.545,224.296 502.675,219.88 502.701,215.389 z" fill="url(#Gradient_3)"/>
          <path d="M397.799,147.502 C398.137,147.502 398.475,147.589 398.802,147.633 L401.057,148.003 C405.209,148.635 409.372,149.257 413.535,149.834 L415.214,150.074 C415.824,150.15 416.445,150.303 417.066,150.444 C418.296,150.73 419.493,151.139 420.641,151.665 C422.882,152.667 424.95,154.021 426.765,155.675 C430.094,158.818 432.752,162.603 434.579,166.802 C436.111,170.202 437.273,173.757 438.044,177.405 C438.072,177.532 438.151,177.641 438.263,177.707 C438.374,177.773 438.508,177.79 438.633,177.754 C440.06,177.329 441.51,176.959 442.992,176.664 C449.347,175.348 455.862,174.981 462.324,175.575 C474.68,176.57 486.451,181.259 496.107,189.033 C500.445,192.578 504.041,196.944 506.689,201.882 C511.744,211.208 511.744,222.458 506.689,231.785 C504.778,235.368 502.347,238.647 499.474,241.516 C499.312,241.692 499.312,241.962 499.474,242.138 C502.286,245.352 505.73,249.014 508.683,251.945 C510.252,253.504 511.865,254.997 513.511,256.37 C514.339,257.057 515.178,257.699 516.017,258.266 C516.467,258.579 516.937,258.863 517.423,259.116 C517.652,259.25 517.893,259.364 518.142,259.454 C518.422,259.514 518.712,259.514 518.992,259.454 C519.226,259.448 519.45,259.36 519.624,259.203 C519.875,258.92 519.853,258.408 519.962,258.114 C520.132,257.625 520.37,257.162 520.67,256.74 C523.94,251.989 528.059,247.674 530.653,242.454 C534.728,234.248 530.653,224.505 534.358,216.648 C537.965,209.02 551.794,204.17 544.166,194.046 C541.147,190.025 536.875,187.311 533.9,183.301 C527.285,174.376 522.087,167.205 513.031,160.416 C499.671,150.477 485.057,142.435 470.399,134.61 C459.632,128.867 446.25,128.072 434.099,128.442 C427.768,128.638 420.88,128.442 415.105,131.428 C409.449,134.011 404.556,139.046 400.73,143.601 L400.654,143.688 C399.715,144.808 398.675,145.841 397.548,146.772 C397.45,146.859 396.971,147.175 397.211,147.328 C397.389,147.434 397.591,147.494 397.799,147.502 z" fill="url(#Gradient_4)"/>
          <path d="M305.844,246.595 C310.383,248.696 314.755,251.14 318.922,253.907 L320.458,254.931 L321.918,255.912 C322.845,256.522 323.738,257.165 324.686,257.743 C326.55,258.931 328.446,260.075 330.386,261.154 C338.23,265.485 346.507,268.98 355.08,271.583 C359.439,272.913 363.798,274.024 368.245,274.95 C372.52,275.9 376.888,276.364 381.267,276.334 C385.507,276.359 389.712,275.559 393.647,273.981 C395.561,273.164 397.363,272.106 399.009,270.831 C400.696,269.463 402.26,267.95 403.684,266.309 C406.62,262.79 409.338,259.097 411.824,255.247 C413.786,252.338 415.769,249.395 417.982,246.529 C418.586,245.78 418.52,244.694 417.829,244.023 C415.136,241.501 412.787,238.636 410.844,235.501 C403.616,224.015 403.616,209.401 410.844,197.915 C414.378,192.291 419.125,187.528 424.738,183.977 C427.957,181.919 431.388,180.212 434.971,178.887 C435.229,178.797 435.439,178.605 435.552,178.356 C435.665,178.107 435.672,177.823 435.57,177.569 C434.337,174.468 432.792,171.499 430.961,168.709 C428.887,165.407 426.188,162.542 423.016,160.274 C421.539,159.293 419.912,158.557 418.199,158.095 C417.788,157.973 417.37,157.879 416.946,157.811 C416.533,157.722 416.114,157.66 415.693,157.626 C415.267,157.567 414.837,157.542 414.407,157.55 L412.947,157.55 C408.697,157.55 404.458,157.463 400.207,157.375 C391.718,157.234 383.24,156.863 374.696,156.351 C368.604,155.991 362.545,153.681 356.486,154.738 C355.985,154.825 355.483,154.934 354.982,155.043 C353.892,155.283 352.89,155.566 351.865,155.882 C349.686,156.558 347.582,157.364 345.501,158.247 C343.42,159.13 341.469,160.034 339.486,160.993 L337.982,161.734 C333.143,164.154 329.263,168.273 324.425,170.529 C320.124,172.449 315.946,174.633 311.914,177.067 C303.687,182.146 294.914,188.641 289.65,197.196 C283.864,206.589 283.362,218.381 283.995,229.104 C284.09,232.755 284.741,236.371 285.923,239.827 C287.874,240.318 289.792,240.83 291.721,241.407 C296.552,242.78 301.273,244.514 305.844,246.595 z" fill="url(#Gradient_5)"/>
          <path d="M556.709,307.524 C555.107,287.69 545.528,274.722 528.517,265.164 C527.525,264.563 526.469,264.077 525.367,263.715 C524.725,263.541 524.048,263.541 523.406,263.715 C522.708,263.889 522,264.064 521.292,264.216 C520.583,264.369 520.136,264.467 519.493,264.565 C518.916,264.663 518.327,264.663 517.75,264.565 L517.031,264.391 L516.442,264.173 C515.197,263.619 514.04,262.885 513.009,261.993 C512.061,261.208 511.2,260.391 510.372,259.563 C508.727,257.906 507.212,256.185 505.751,254.441 C502.918,251.03 499.943,247.194 497.371,243.543 C497.34,243.51 497.297,243.491 497.251,243.491 C497.206,243.491 497.162,243.51 497.131,243.543 L496.042,244.524 C494.121,246.115 492.093,247.571 489.972,248.883 C489.907,248.916 489.872,248.987 489.884,249.058 C490.2,250.976 490.418,252.861 490.571,254.79 C490.733,256.798 490.791,258.813 490.745,260.827 C490.72,262.908 490.487,264.982 490.048,267.017 C489.623,269.381 488.482,271.557 486.779,273.25 L486.68,273.349 L486.321,273.545 C482.713,275.498 479.291,277.778 476.099,280.356 C474.64,281.505 473.355,282.859 472.285,284.377 C471.947,284.843 471.73,285.386 471.653,285.957 C471.653,286.23 471.653,286.132 471.958,286.426 C472.15,286.594 472.358,286.744 472.579,286.873 C472.733,286.976 472.893,287.07 473.058,287.156 L473.799,287.559 C474.78,288.104 475.728,288.649 476.666,289.216 C478.562,290.305 480.414,291.515 482.234,292.725 C485.904,295.178 489.44,297.826 492.827,300.658 C496.287,303.542 499.523,306.686 502.504,310.063 C505.647,313.572 508.301,317.491 510.394,321.712 C512.693,326.301 513.876,331.368 513.848,336.501 C513.848,337.83 513.652,339.16 513.478,340.489 L513.478,340.489 L513.053,342.44 C512.925,343.094 512.75,343.739 512.53,344.369 C511.737,346.877 510.639,349.278 509.26,351.518 L508.171,353.196 L507.615,354.024 L507.092,354.689 C506.362,355.582 505.751,356.367 505.13,357.184 C503.888,358.808 502.678,360.454 501.512,362.132 Q497.992,367.156 494.974,372.441 C493.971,374.196 493.012,375.983 492.097,377.781 C491.639,378.686 491.203,379.579 490.8,380.451 L489.568,383.164 C487.956,386.848 486.452,390.793 484.708,394.912 C483.836,396.972 482.91,399.053 481.853,401.157 C480.796,403.26 479.586,405.418 478.344,407.412 Q474.857,412.97 471.14,418.408 C468.667,422.026 466.084,425.611 463.512,429.109 C460.94,432.607 458.183,436.116 455.35,439.56 C449.626,446.659 443.308,453.258 436.464,459.285 C434.666,460.56 434.96,461.846 437.358,461.606 C444.094,461.488 450.804,460.733 457.398,459.35 C509.282,448.376 542.161,398.192 553.145,349.284 C556.229,335.651 557.831,321.538 556.709,307.524 z" fill="url(#Gradient_6)"/>
          <path d="M338.711,340.561 C344.018,340.561 348.519,335.635 348.519,330.208 C348.46,324.816 344.103,320.459 338.711,320.4 L319.585,320.4 L319.585,320.4 L319.585,340.55 L319.585,340.55 z" fill="url(#Gradient_7)"/>
          <path d="M420.979,247.515 C421.771,247.692 421.456,247.551 421.961,247.843 C422.735,248.399 423.541,248.966 424.347,249.489 C429.922,253.023 436.086,255.526 442.547,256.877 C448.898,258.188 455.409,258.556 461.868,257.967 C469.899,257.244 477.723,255.027 484.938,251.428 C485.471,251.163 486.104,251.194 486.609,251.509 C487.114,251.825 487.418,252.381 487.412,252.976 L487.412,254.872 C487.399,256.784 487.286,258.694 487.074,260.593 C486.89,262.441 486.525,264.266 485.985,266.042 C485.616,267.353 484.957,268.564 484.056,269.584 C483.919,269.721 483.756,269.829 483.576,269.9 C479.673,271.61 475.94,273.687 472.428,276.101 C470.417,277.451 468.614,279.089 467.077,280.961 C466.095,282.182 465.432,283.627 465.148,285.168 C464.99,286.15 465.05,287.154 465.323,288.11 C465.477,288.583 465.67,289.042 465.9,289.483 C466.118,289.886 466.358,290.224 466.609,290.573 L466.728,290.715 C467.232,291.312 467.807,291.847 468.439,292.306 C468.716,292.52 469.003,292.72 469.3,292.905 L469.932,293.319 C470.782,293.886 471.632,294.485 472.482,295.085 C474.183,296.283 475.828,297.537 477.452,298.823 C480.708,301.363 483.826,304.077 486.791,306.952 C489.693,309.767 492.382,312.794 494.834,316.008 C497.187,319.046 499.115,322.389 500.566,325.947 C501.887,329.124 502.461,332.561 502.244,335.995 C501.891,339.226 500.68,342.304 498.735,344.909 L498.016,345.868 L497.667,346.358 L497.155,346.914 C496.468,347.633 495.716,348.483 494.975,349.322 C493.515,350.99 492.087,352.701 490.693,354.433 Q486.497,359.653 482.77,365.266 Q480.917,368.088 479.185,370.976 C478.574,371.935 478.04,372.96 477.484,373.962 C476.929,374.965 476.395,375.989 475.893,376.992 C473.856,380.991 472.112,384.969 470.314,388.619 C469.42,390.45 468.516,392.194 467.557,393.883 C466.598,395.572 465.617,397.054 464.527,398.634 C457.378,408.802 449.499,418.425 441.402,427.84 C438.994,430.641 436.564,433.431 434.134,436.177 C431.198,439.746 428.066,443.148 424.751,446.366 C421.309,449.53 417.669,452.471 413.853,455.172 C412.324,456.163 410.677,456.958 408.949,457.536 C407.456,458.125 396.667,456.043 395.142,455.564 C379.953,450.936 365.866,443.451 352.908,434.36 L356.83,434.36 L358.992,427.127 L368.405,427.127 L370.657,434.36 L377.143,434.36 L367.009,401.693 L360.839,401.693 L351.066,433.056 C335.863,421.976 322.948,408.163 312.145,392.815 L319.86,392.815 C321.228,392.815 322.339,391.709 322.345,390.341 L322.345,357.387 L331.238,357.387 C331.259,357.398 348.032,390.955 348.467,391.682 C348.902,392.408 349.691,392.848 350.537,392.837 L367.734,392.837 C368.645,392.882 369.506,392.415 369.964,391.626 C370.423,390.837 370.403,389.858 369.913,389.088 L352.194,356.242 C363.44,351.709 371.319,342.141 371.319,330.241 C371.217,314.747 358.61,302.252 343.116,302.288 L304.418,302.288 C303.058,302.276 301.946,303.369 301.934,304.729 L301.934,374.921 C298.599,366.824 296.398,358.204 293.837,349.856 C284.803,320.444 279.724,286.541 297.444,259.144 C297.511,259.025 297.655,258.974 297.782,259.024 L299.885,259.754 C303.949,261.266 307.891,263.088 311.676,265.203 L313.126,266.009 L314.64,266.881 C315.73,267.481 316.82,268.113 317.91,268.68 Q321.168,270.401 324.514,271.949 C333.368,276.046 342.652,279.142 352.194,281.179 C356.923,282.204 361.686,282.988 366.448,283.577 C371.387,284.235 376.384,284.338 381.345,283.882 C386.463,283.444 391.444,282 396.003,279.632 C398.29,278.395 400.41,276.871 402.312,275.098 C404.11,273.356 405.748,271.456 407.205,269.421 C412.142,262.533 415.291,255.036 419.498,248.312 C419.753,247.912 420.162,247.634 420.628,247.546 L420.979,247.515 z M389.394,401.226 Q387.142,401.226 384.867,401.436 Q382.593,401.646 380.701,402.019 L380.701,434.36 L386.871,434.36 L386.871,423.113 Q387.097,423.16 387.615,423.207 Q388.133,423.253 388.673,423.277 Q389.214,423.3 389.709,423.3 L390.429,423.3 Q392.772,423.3 394.956,422.67 Q397.14,422.04 398.852,420.663 Q400.563,419.286 401.599,417.163 Q402.635,415.04 402.635,412.053 Q402.635,408.646 401.442,406.523 Q400.248,404.4 398.356,403.21 Q396.465,402.02 394.1,401.623 Q391.736,401.226 389.394,401.226 z M389.889,406.733 Q391.06,406.733 392.186,406.966 Q393.312,407.2 394.19,407.806 Q395.069,408.413 395.609,409.416 Q396.15,410.42 396.15,411.96 Q396.15,413.78 395.587,414.9 Q395.024,416.02 394.078,416.65 Q393.132,417.28 391.938,417.513 Q390.745,417.746 389.529,417.746 L388.966,417.746 Q388.583,417.746 388.178,417.723 Q387.772,417.7 387.412,417.653 Q387.052,417.606 386.871,417.56 L386.871,406.966 Q387.367,406.873 388.178,406.803 Q388.988,406.733 389.889,406.733 z M416.417,401.226 Q414.165,401.226 411.891,401.436 Q409.616,401.646 407.725,402.019 L407.724,434.36 L413.895,434.36 L413.895,423.113 Q414.12,423.16 414.638,423.206 Q415.156,423.253 415.697,423.276 Q416.237,423.3 416.732,423.3 L417.453,423.3 Q419.795,423.3 421.979,422.67 Q424.164,422.04 425.875,420.663 Q427.587,419.286 428.623,417.163 Q429.659,415.04 429.659,412.053 Q429.659,408.646 428.465,406.523 Q427.272,404.4 425.38,403.209 Q423.488,402.019 421.124,401.623 Q418.759,401.226 416.417,401.226 L416.417,401.226 z M416.912,406.733 Q418.084,406.733 419.21,406.966 Q420.336,407.2 421.214,407.806 Q422.092,408.413 422.633,409.416 Q423.173,410.42 423.173,411.96 Q423.173,413.78 422.61,414.9 Q422.047,416.02 421.101,416.65 Q420.155,417.28 418.962,417.513 Q417.768,417.746 416.552,417.746 L415.989,417.746 Q415.606,417.746 415.201,417.723 Q414.796,417.7 414.435,417.653 Q414.075,417.606 413.895,417.56 L413.895,406.966 Q414.39,406.873 415.201,406.803 Q416.012,406.733 416.913,406.733 L416.912,406.733 z M422.222,301.144 C396.565,301.144 375.766,321.943 375.766,347.601 C375.766,373.258 396.565,394.057 422.222,394.057 L422.222,394.014 C433.479,394.022 444.547,391.128 454.36,385.612 C454.946,385.071 455.314,384.335 455.395,383.541 L455.264,348.723 C455.277,347.41 454.244,346.324 452.932,346.271 L426.941,346.271 C425.573,346.271 424.462,347.377 424.456,348.745 L424.456,361.626 C424.462,362.266 424.727,362.876 425.192,363.316 C425.656,363.756 426.28,363.988 426.919,363.958 L435.049,363.958 L435.049,371.445 C433.77,371.952 432.455,372.364 431.115,372.676 C412.97,376.948 395.49,362.356 398.204,343.906 C400.035,331.418 410.605,321.61 423.41,321.61 C429.753,321.61 435.452,323.299 440.367,327.821 C441.409,328.63 442.881,328.58 443.865,327.701 L454.087,316.804 C454.576,316.333 454.829,315.67 454.779,314.993 C454.728,314.317 454.379,313.698 453.826,313.306 C444.999,305.677 433.12,301.144 422.222,301.144 L422.222,301.144 z" fill="url(#Gradient_8)"/>
          <path d="M363.992,411.073 L367.189,421.993 L360.433,421.993 L363.586,411.073 L363.992,411.073 z" fill="url(#Gradient_9)"/>
        </g>
      </g>
    </g>
  </g>
</svg>
