/* XPM */
static char * icon_xpm[] = {
"16 16 88 1",
" 	c None",
".	c #0354AE",
"+	c #9F9F9F",
"@	c #A5A5A5",
"#	c #007BFF",
"$	c #007AFF",
"%	c #0785FF",
"&	c #9C9C9C",
"*	c #C8C8C8",
"=	c #F0F0F0",
"-	c #F9F9F9",
";	c #FAFAFA",
">	c #B1B1B1",
",	c #017CFF",
"'	c #0786FF",
")	c #0F90FF",
"!	c #159AFF",
"~	c #1CA3FF",
"{	c #5BABE0",
"]	c #26B1FF",
"^	c #C7C7C7",
"/	c #F7F7F7",
"(	c #F6F6F6",
"_	c #EAEAEA",
":	c #999999",
"<	c #179AFF",
"[	c #1DA5FF",
"}	c #24AEFF",
"|	c #28B5FF",
"1	c #2BB7FF",
"2	c #2DBBFF",
"3	c #F4F4F4",
"4	c #969696",
"5	c #27B2FF",
"6	c #2BB8FF",
"7	c #2FBEFF",
"8	c #31C2FF",
"9	c #34C4FF",
"0	c #EEEEEE",
"a	c #929292",
"b	c #31C1FF",
"c	c #34C5FF",
"d	c #36C8FF",
"e	c #38CBFF",
"f	c #3ACEFF",
"g	c #E7E7E7",
"h	c #DADADA",
"i	c #8D8D8D",
"j	c #3BCEFF",
"k	c #3CD1FF",
"l	c #3FD5FF",
"m	c #41D8FF",
"n	c #E2E2E2",
"o	c #AFAFAF",
"p	c #3DD1FF",
"q	c #53C3E3",
"r	c #55C7E3",
"s	c #57C9E3",
"t	c #58CCE3",
"u	c #5BCEE3",
"v	c #DCDCDC",
"w	c #C5C5C5",
"x	c #858585",
"y	c #45DEFF",
"z	c #47E2FF",
"A	c #47E3FD",
"B	c #44E4F9",
"C	c #41E5F6",
"D	c #D6D6D6",
"E	c #C3C3C3",
"F	c #818181",
"G	c #3EE6F2",
"H	c #3CE7EF",
"I	c #39E8EB",
"J	c #D1D1D1",
"K	c #BDBDBD",
"L	c #7D7D7D",
"M	c #36E9E8",
"N	c #33EAE4",
"O	c #31EBE0",
"P	c #CFCFCF",
"Q	c #797979",
"R	c #2BEEDA",
"S	c #29EED6",
"T	c #777777",
"U	c #00FFA1",
"V	c #BBBBBB",
"W	c #727272",
"                ",
"  ....    ++@+  ",
" .#$#%..&*=-;=> ",
".,')!~{]^-/((-_:",
".<[}]|12=3====(4",
".5|62789000000=a",
".27bcdef_gggg_hi",
".cdejklmnnnnn0o ",
" .pqrstuhvhv_wx ",
"  .yzABCDDDgEF  ",
"   .CGHIJJnKL   ",
"    .MNOPnKQ    ",
"     .RSvKT     ",
"      .UVT      ",
"       .W       ",
"                "};
