/* XPM */
static char * icon_xpm[] = {
"16 16 76 1",
" 	c None",
".	c #6B0000",
"+	c #9F9F9F",
"@	c #A5A5A5",
"#	c #6B0100",
"$	c #6C0000",
"%	c #9C9C9C",
"&	c #C8C8C8",
"*	c #F0F0F0",
"=	c #F9F9F9",
"-	c #FAFAFA",
";	c #B1B1B1",
">	c #6F0706",
",	c #C7C7C7",
"'	c #F7F7F7",
")	c #F6F6F6",
"!	c #EAEAEA",
"~	c #999999",
"{	c #6F0707",
"]	c #710A0A",
"^	c #751111",
"/	c #F4F4F4",
"(	c #969696",
"_	c #6F0606",
":	c #791818",
"<	c #7D1F1E",
"[	c #EEEEEE",
"}	c #929292",
"|	c #730E0D",
"1	c #791718",
"2	c #7D1F1F",
"3	c #812525",
"4	c #852D2D",
"5	c #E7E7E7",
"6	c #DADADA",
"7	c #8D8D8D",
"8	c #7D1E1E",
"9	c #812626",
"0	c #852D2C",
"a	c #893333",
"b	c #8B3737",
"c	c #E2E2E2",
"d	c #AFAFAF",
"e	c #802625",
"f	c #852C2D",
"g	c #8E3D3E",
"h	c #934444",
"i	c #DCDCDC",
"j	c #C5C5C5",
"k	c #858585",
"l	c #8C3A3A",
"m	c #8F3D3E",
"n	c #924444",
"o	c #964B4B",
"p	c #9A5252",
"q	c #D6D6D6",
"r	c #C3C3C3",
"s	c #818181",
"t	c #964B4A",
"u	c #9B5251",
"v	c #9E5858",
"w	c #A25F5F",
"x	c #D1D1D1",
"y	c #BDBDBD",
"z	c #7D7D7D",
"A	c #A35F5F",
"B	c #A56262",
"C	c #A86A6A",
"D	c #CFCFCF",
"E	c #797979",
"F	c #AC7070",
"G	c #B07777",
"H	c #777777",
"I	c #B88585",
"J	c #BBBBBB",
"K	c #727272",
"                ",
"  ....    ++@+  ",
" ..#$...%&*=-*; ",
".......>,='))=!~",
".$...{]^*/****)(",
"..#_]^:<[[[[[[*}",
".>|^1234!5555!67",
".^:890abccccc[d ",
" .efabgh6i6i!jk ",
"  .lmnopqqq5rs  ",
"   .tuvwxxcyz   ",
"    .ABCDcyE    ",
"     .FGiyH     ",
"      .IJH      ",
"       .K       ",
"                "};
