/* XPM */
static char * icon_xpm[] = {
"16 16 42 1",
" 	c None",
".	c #333333",
"+	c #9F9F9F",
"@	c #A5A5A5",
"#	c #4C4C4C",
"$	c #000000",
"%	c #9C9C9C",
"&	c #C8C8C8",
"*	c #F0F0F0",
"=	c #F9F9F9",
"-	c #FAFAFA",
";	c #B1B1B1",
">	c #666666",
",	c #C7C7C7",
"'	c #F7F7F7",
")	c #F6F6F6",
"!	c #EAEAEA",
"~	c #999999",
"{	c #F4F4F4",
"]	c #969696",
"^	c #EEEEEE",
"/	c #929292",
"(	c #E7E7E7",
"_	c #DADADA",
":	c #8D8D8D",
"<	c #E2E2E2",
"[	c #AFAFAF",
"}	c #DCDCDC",
"|	c #C5C5C5",
"1	c #858585",
"2	c #D6D6D6",
"3	c #C3C3C3",
"4	c #818181",
"5	c #191919",
"6	c #D1D1D1",
"7	c #BDBDBD",
"8	c #7D7D7D",
"9	c #CFCFCF",
"0	c #797979",
"a	c #777777",
"b	c #BBBBBB",
"c	c #727272",
"                ",
"  ....    ++@+  ",
" .####.$%&*=-*; ",
".#####>.,='))=!~",
".#######*{****)]",
".#######^^^^^^*/",
"$.######!((((!_:",
"$.#####.<<<<<^[ ",
" $......_}_}!|1 ",
"  $.....222(34  ",
"   $5...66<78   ",
"    $5559<70    ",
"     $55}7a     ",
"      $5ba      ",
"       $c       ",
"                "};
